<svg xmlns="http://www.w3.org/2000/svg" xml:space="preserve" width="219.9" height="164.3"><path fill="#2EB09C" d="M124.9 17.4 76.6 33.7v57.9h66.8V44.8H94.9v28.5h30V48.7h7v31.6H88.2V37.7h62.2v61.1H69.5V28.6l62.4-20.9v25.8h-7z" class="st0"/><g fill="#FFF"><path d="M45 107.7v27c0 3.6-2.9 6.5-6.5 6.5H13.9c-3.6 0-6.5-2.9-6.5-6.5v-27h9v26h19.7v-26zM86.8 141.2H75.6l-13-12.1H59v-6.9h14.8c.8 0 1.5-.7 1.5-1.5V116c0-.8-.7-1.5-1.5-1.5H56.7v26.6h-8.8v-33.5h29.9c3.4 0 6.2 2.8 6.2 6.2v9c0 3.4-2.8 6.2-6.2 6.2h-4.1zM152.3 107.7h-8l-18.9 33.5h45.9zm-4.5 8.3 9.6 18.1h-19.2zM173.4 141.2h8.2V116l22.9 9.7v15.5h8v-33.5h-8v9.4l-23-9.4h-8.1zM125.1 118.3v-4c0-3.6-3-6.6-6.6-6.6H88.8v33.5h28.4c3.7 0 7.9-2.6 7.9-6.7v-5c0-2.6-1.7-4.8-4.1-5.4 2.3-1.1 4.1-3.2 4.1-5.8m-8.3.5c0 .9-.8 1.7-1.7 1.7h-15v6.8h15c.9 0 1.7.8 1.7 1.7v3.3c0 .9-.8 1.7-1.7 1.7H97.6v-19.5h17.5c.9 0 1.7.8 1.7 1.7z" class="st1"/></g><g fill="#FFF" class="st2"><path d="m13 146.1 4.1 7.2h-1.3l-1-1.7h-4.6l-1 1.7H7.8l4.2-7.2zm1.2 4.4-1.7-3-1.8 3zM25.8 153.2h-1.7l-3.1-2.9h-1.9v2.9h-1.3V146h5.9c.8 0 1.5.4 1.5 1.2v2c0 .8-.6 1.2-1.5 1.2h-1.1zm-2.3-6h-4.4v2.2h4.4c.3 0 .4-.1.4-.3v-1.6c0-.2-.1-.3-.4-.3M27.7 146.1h5.2c.8 0 1.5.4 1.5 1.2v4.8c0 .8-.7 1.2-1.5 1.2h-5.2c-.8 0-1.5-.4-1.5-1.2v-4.8c0-.8.6-1.2 1.5-1.2m5.3 1.1h-5.5v5h3l-.7-1.3 1-.5 1 1.8H33zm-.6 6.1.8 1.3h-1.5l-.6-1.3zM36.6 152.2h5v-6.1h1.3v6c0 .8-.7 1.2-1.5 1.2h-4.6c-.8 0-1.5-.4-1.5-1.2v-6h1.3zM45.2 146.1v7.2h-1.3v-7.2zM50.4 153.2H49v-6.1h-3.2V146h7.7v1.1h-3.3v6.1zM61.2 147.2h-5.5v2H59v1h-3.3v2h5.6v1.1h-6.9v-7.2h6.8zM68.4 147.2h-4.8v5h4.8v-1.6l1.3.3v1.1c0 .8-.7 1.2-1.5 1.2h-4.5c-.8 0-1.5-.4-1.5-1.2v-4.8c0-.7.6-1.2 1.5-1.2h4.5c.8 0 1.5.4 1.5 1.2v1.3l-1.3.3zM74.8 153.2h-1.3v-6.1h-3.2V146H78v1.1h-3.3v6.1zM80.1 152.2h5v-6.1h1.3v6c0 .8-.7 1.2-1.5 1.2h-4.6c-.8 0-1.5-.4-1.5-1.2v-6h1.3zM95.3 153.2h-1.7l-3.1-2.9h-1.9v2.9h-1.3V146h5.9c.8 0 1.5.4 1.5 1.2v2c0 .8-.6 1.2-1.5 1.2h-1.1zm-2.2-6h-4.4v2.2h4.4c.3 0 .4-.1.4-.3v-1.6c0-.2-.1-.3-.4-.3M100.5 146.1l4.1 7.2h-1.3l-1-1.7h-4.6l-1 1.7h-1.3l4.2-7.2zm1.3 4.4-1.7-3-1.8 3z" class="st1"/></g><g fill="#FFF" class="st2"><path d="M123.9 147.2h-4.7v4.8h4.7v-1.5l1.3.3v1.1c0 .7-.6 1.1-1.4 1.1h-4.4c-.8 0-1.4-.4-1.4-1.1v-4.6c0-.7.6-1.1 1.4-1.1h4.4c.8 0 1.4.4 1.4 1.1v1.2l-1.3.3zM127.6 146.2h5.1c.8 0 1.4.4 1.4 1.1v4.6c0 .7-.6 1.1-1.4 1.1h-5.1c-.8 0-1.4-.4-1.4-1.1v-4.6c-.1-.7.6-1.1 1.4-1.1m5.2 5.8v-4.8h-5.4v4.8zM136.3 153H135v-6.8h1.3l5.3 5.1v-5.1h1.3v6.8h-1.3l-5.4-5.2v5.2zM145.4 146.2h4.4c.8 0 1.4.4 1.4 1.1v.5l-1.3.3v-.9h-4.7v1.9h4.5c.8 0 1.5.4 1.5 1.1v1.7c0 .7-.6 1.1-1.4 1.1h-4.5c-.8 0-1.4-.4-1.4-1.1v-.5l1.3-.3v.9h4.8v-1.9h-4.5c-.8 0-1.4-.4-1.4-1.1v-1.7c-.1-.7.5-1.1 1.3-1.1M156.2 153h-1.3v-5.8h-3.1v-1h7.5v1h-3.2v5.8zM167.8 153h-1.6l-3-2.7h-1.8v2.7h-1.3v-6.8h5.8c.8 0 1.4.4 1.4 1.1v1.9c0 .7-.6 1.1-1.4 1.1h-1.1zm-2.1-5.8h-4.3v2.1h4.3c.3 0 .4-.1.4-.3v-1.5c-.1-.2-.2-.3-.4-.3M169.5 152h4.8v-5.8h1.3v5.7c0 .7-.7 1.1-1.5 1.1h-4.5c-.8 0-1.4-.4-1.4-1.1v-5.7h1.3zM182.7 147.2H178v4.8h4.7v-1.5l1.3.3v1.1c0 .7-.6 1.1-1.4 1.1h-4.4c-.8 0-1.4-.4-1.4-1.1v-4.6c0-.7.6-1.1 1.4-1.1h4.4c.8 0 1.4.4 1.4 1.1v1.2l-1.3.3zM190.9 147.2h-4.7v4.8h4.7v-1.5l1.3.3v1.1c0 .7-.6 1.1-1.4 1.1h-4.4c-.8 0-1.4-.4-1.4-1.1v-4.6c0-.7.6-1.1 1.4-1.1h4.4c.8 0 1.4.4 1.4 1.1v1.2l-1.3.3zM194.4 146.2v6.8h-1.3v-6.8zM196.8 146.2h5.1c.8 0 1.4.4 1.4 1.1v4.6c0 .7-.6 1.1-1.4 1.1h-5.1c-.8 0-1.4-.4-1.4-1.1v-4.6c0-.7.6-1.1 1.4-1.1m5.3 5.8v-4.8h-5.4v4.8zm-.8-7.8-1.6 1.2h-1.1l1.4-1.2zM205.6 153h-1.3v-6.8h1.3l5.3 5.1v-5.1h1.3v6.8H211l-5.4-5.2z" class="st1"/></g><path fill="#FFF" d="M110.1 142.9h.9V156h-.9z" class="st1"/></svg>