<svg width="219.9" height="164.3" xmlns="http://www.w3.org/2000/svg" version="1.1" xml:space="preserve">
 <g>
  <title>Layer 1</title>
  <g id="Capa_1_00000008859954364634564630000008054836135860749493_">
   <g id="svg_1">
    <polygon class="st0" points="124.9,17.4 76.6,33.7 76.6,91.6 143.4,91.6 143.4,44.8 94.9,44.8 94.9,73.3 124.9,73.3 124.9,48.7     131.9,48.7 131.9,80.3 88.2,80.3 88.2,37.7 150.4,37.7 150.4,98.8 69.5,98.8 69.5,28.6 131.9,7.7 131.9,33.5 124.9,33.5   " fill="#2EB09C" id="svg_2"/>
    <g id="svg_3">
     <path class="st1" d="m45,107.7l0,27c0,3.6 -2.9,6.5 -6.5,6.5l-24.6,0c-3.6,0 -6.5,-2.9 -6.5,-6.5l0,-27l9,0l0,26l19.7,0l0,-26l8.9,0z" fill="#FFFFFF" id="svg_4"/>
     <path class="st1" d="m86.8,141.2l-11.2,0l-13,-12.1l-3.6,0l0,-6.9l14.8,0c0.8,0 1.5,-0.7 1.5,-1.5l0,-4.7c0,-0.8 -0.7,-1.5 -1.5,-1.5l-17.1,0l0,26.6l-8.8,0l0,-33.5l29.9,0c3.4,0 6.2,2.8 6.2,6.2l0,9c0,3.4 -2.8,6.2 -6.2,6.2l-4.1,0l13.1,12.2z" fill="#FFFFFF" id="svg_5"/>
     <path class="st1" d="m152.3,107.7l-8,0l-18.9,33.5l45.9,0l-19,-33.5zm-4.5,8.3l9.6,18.1l-19.2,0l9.6,-18.1z" fill="#FFFFFF" id="svg_6"/>
     <polygon class="st1" points="173.4,141.2 181.6,141.2 181.6,116 204.5,125.7 204.5,141.2 212.5,141.2 212.5,107.7 204.5,107.7      204.5,117.1 181.5,107.7 173.4,107.7    " fill="#FFFFFF" id="svg_7"/>
     <path class="st1" d="m125.1,118.3l0,-4c0,-3.6 -3,-6.6 -6.6,-6.6l-29.7,0l0,33.5l28.4,0c3.7,0 7.9,-2.6 7.9,-6.7l0,-5c0,-2.6 -1.7,-4.8 -4.1,-5.4c2.3,-1.1 4.1,-3.2 4.1,-5.8zm-8.3,0.5c0,0.9 -0.8,1.7 -1.7,1.7l-15,0l0,6.8l15,0c0.9,0 1.7,0.8 1.7,1.7l0,3.3c0,0.9 -0.8,1.7 -1.7,1.7l-17.5,0l0,-19.5l17.5,0c0.9,0 1.7,0.8 1.7,1.7c0,0 0,2.6 0,2.6z" fill="#FFFFFF" id="svg_8"/>
    </g>
    <g class="st2" enable-background="new" id="svg_9">
     <path class="st1" d="m13,146.1l4.1,7.2l-1.3,0l-1,-1.7l-4.6,0l-1,1.7l-1.4,0l4.2,-7.2l1,0zm1.2,4.4l-1.7,-3l-1.8,3l3.5,0z" fill="#FFFFFF" id="svg_10"/>
     <path class="st1" d="m25.8,153.2l-1.7,0l-3.1,-2.9l-1.9,0l0,2.9l-1.3,0l0,-7.2l5.9,0c0.8,0 1.5,0.4 1.5,1.2l0,2c0,0.8 -0.6,1.2 -1.5,1.2l-1.1,0l3.2,2.8zm-2.3,-6l-4.4,0l0,2.2l4.4,0c0.3,0 0.4,-0.1 0.4,-0.3l0,-1.6c0,-0.2 -0.1,-0.3 -0.4,-0.3z" fill="#FFFFFF" id="svg_11"/>
     <path class="st1" d="m27.7,146.1c0.5,0 5.2,0 5.2,0c0.8,0 1.5,0.4 1.5,1.2l0,4.8c0,0.8 -0.7,1.2 -1.5,1.2l-5.2,0c-0.8,0 -1.5,-0.4 -1.5,-1.2l0,-4.8c0,-0.8 0.6,-1.2 1.5,-1.2zm5.3,1.1l-5.5,0l0,5l3,0l-0.7,-1.3l1,-0.5l1,1.8l1.2,0l0,-5zm-0.6,6.1l0.8,1.3l-1.5,0l-0.6,-1.3l1.3,0z" fill="#FFFFFF" id="svg_12"/>
     <path class="st1" d="m36.6,152.2l5,0l0,-6.1l1.3,0l0,6c0,0.8 -0.7,1.2 -1.5,1.2l-4.6,0c-0.8,0 -1.5,-0.4 -1.5,-1.2l0,-6l1.3,0l0,6.1z" fill="#FFFFFF" id="svg_13"/>
     <path class="st1" d="m45.2,146.1l0,7.2l-1.3,0l0,-7.2l1.3,0z" fill="#FFFFFF" id="svg_14"/>
     <path class="st1" d="m50.4,153.2l-1.4,0l0,-6.1l-3.2,0l0,-1.1l7.7,0l0,1.1l-3.3,0l0,6.1l0.2,0z" fill="#FFFFFF" id="svg_15"/>
     <path class="st1" d="m61.2,147.2l-5.5,0l0,2l3.3,0l0,1l-3.3,0l0,2l5.6,0l0,1.1l-6.9,0l0,-7.2l6.8,0l0,1.1z" fill="#FFFFFF" id="svg_16"/>
     <path class="st1" d="m68.4,147.2l-4.8,0l0,5l4.8,0l0,-1.6l1.3,0.3l0,1.1c0,0.8 -0.7,1.2 -1.5,1.2l-4.5,0c-0.8,0 -1.5,-0.4 -1.5,-1.2l0,-4.8c0,-0.7 0.6,-1.2 1.5,-1.2l4.5,0c0.8,0 1.5,0.4 1.5,1.2l0,1.3l-1.3,0.3l0,-1.6z" fill="#FFFFFF" id="svg_17"/>
     <path class="st1" d="m74.8,153.2l-1.3,0l0,-6.1l-3.2,0l0,-1.1l7.7,0l0,1.1l-3.3,0l0,6.1l0.1,0z" fill="#FFFFFF" id="svg_18"/>
     <path class="st1" d="m80.1,152.2l5,0l0,-6.1l1.3,0l0,6c0,0.8 -0.7,1.2 -1.5,1.2l-4.6,0c-0.8,0 -1.5,-0.4 -1.5,-1.2l0,-6l1.3,0l0,6.1z" fill="#FFFFFF" id="svg_19"/>
     <path class="st1" d="m95.3,153.2l-1.7,0l-3.1,-2.9l-1.9,0l0,2.9l-1.3,0l0,-7.2l5.9,0c0.8,0 1.5,0.4 1.5,1.2l0,2c0,0.8 -0.6,1.2 -1.5,1.2l-1.1,0l3.2,2.8zm-2.2,-6l-4.4,0l0,2.2l4.4,0c0.3,0 0.4,-0.1 0.4,-0.3l0,-1.6c0,-0.2 -0.1,-0.3 -0.4,-0.3z" fill="#FFFFFF" id="svg_20"/>
     <path class="st1" d="m100.5,146.1l4.1,7.2l-1.3,0l-1,-1.7l-4.6,0l-1,1.7l-1.3,0l4.2,-7.2l0.9,0zm1.3,4.4l-1.7,-3l-1.8,3l3.5,0z" fill="#FFFFFF" id="svg_21"/>
    </g>
    <g class="st2" enable-background="new" id="svg_22">
     <path class="st1" d="m123.9,147.2l-4.7,0l0,4.8l4.7,0l0,-1.5l1.3,0.3l0,1.1c0,0.7 -0.6,1.1 -1.4,1.1l-4.4,0c-0.8,0 -1.4,-0.4 -1.4,-1.1l0,-4.6c0,-0.7 0.6,-1.1 1.4,-1.1l4.4,0c0.8,0 1.4,0.4 1.4,1.1l0,1.2l-1.3,0.3l0,-1.6z" fill="#FFFFFF" id="svg_23"/>
     <path class="st1" d="m127.6,146.2c0.5,0 5.1,0 5.1,0c0.8,0 1.4,0.4 1.4,1.1l0,4.6c0,0.7 -0.6,1.1 -1.4,1.1l-5.1,0c-0.8,0 -1.4,-0.4 -1.4,-1.1l0,-4.6c-0.1,-0.7 0.6,-1.1 1.4,-1.1zm5.2,5.8l0,-4.8l-5.4,0l0,4.8l5.4,0z" fill="#FFFFFF" id="svg_24"/>
     <path class="st1" d="m136.3,153l-1.3,0l0,-6.8l1.3,0l5.3,5.1l0,-5.1l1.3,0l0,6.8l-1.3,0l-5.4,-5.2l0,5.2l0.1,0z" fill="#FFFFFF" id="svg_25"/>
     <path class="st1" d="m145.4,146.2c0.5,0 4.4,0 4.4,0c0.8,0 1.4,0.4 1.4,1.1l0,0.5l-1.3,0.3l0,-0.9l-4.7,0l0,1.9l4.5,0c0.8,0 1.5,0.4 1.5,1.1l0,1.7c0,0.7 -0.6,1.1 -1.4,1.1l-4.5,0c-0.8,0 -1.4,-0.4 -1.4,-1.1l0,-0.5l1.3,-0.3l0,0.9l4.8,0l0,-1.9l-4.5,0c-0.8,0 -1.4,-0.4 -1.4,-1.1l0,-1.7c-0.1,-0.7 0.5,-1.1 1.3,-1.1z" fill="#FFFFFF" id="svg_26"/>
     <path class="st1" d="m156.2,153l-1.3,0l0,-5.8l-3.1,0l0,-1l7.5,0l0,1l-3.2,0l0,5.8l0.1,0z" fill="#FFFFFF" id="svg_27"/>
     <path class="st1" d="m167.8,153l-1.6,0l-3,-2.7l-1.8,0l0,2.7l-1.3,0l0,-6.8l5.8,0c0.8,0 1.4,0.4 1.4,1.1l0,1.9c0,0.7 -0.6,1.1 -1.4,1.1l-1.1,0l3,2.7zm-2.1,-5.8l-4.3,0l0,2.1l4.3,0c0.3,0 0.4,-0.1 0.4,-0.3l0,-1.5c-0.1,-0.2 -0.2,-0.3 -0.4,-0.3z" fill="#FFFFFF" id="svg_28"/>
     <path class="st1" d="m169.5,152l4.8,0l0,-5.8l1.3,0l0,5.7c0,0.7 -0.7,1.1 -1.5,1.1l-4.5,0c-0.8,0 -1.4,-0.4 -1.4,-1.1l0,-5.7l1.3,0l0,5.8z" fill="#FFFFFF" id="svg_29"/>
     <path class="st1" d="m182.7,147.2l-4.7,0l0,4.8l4.7,0l0,-1.5l1.3,0.3l0,1.1c0,0.7 -0.6,1.1 -1.4,1.1l-4.4,0c-0.8,0 -1.4,-0.4 -1.4,-1.1l0,-4.6c0,-0.7 0.6,-1.1 1.4,-1.1l4.4,0c0.8,0 1.4,0.4 1.4,1.1l0,1.2l-1.3,0.3l0,-1.6z" fill="#FFFFFF" id="svg_30"/>
     <path class="st1" d="m190.9,147.2l-4.7,0l0,4.8l4.7,0l0,-1.5l1.3,0.3l0,1.1c0,0.7 -0.6,1.1 -1.4,1.1l-4.4,0c-0.8,0 -1.4,-0.4 -1.4,-1.1l0,-4.6c0,-0.7 0.6,-1.1 1.4,-1.1l4.4,0c0.8,0 1.4,0.4 1.4,1.1l0,1.2l-1.3,0.3l0,-1.6z" fill="#FFFFFF" id="svg_31"/>
     <path class="st1" d="m194.4,146.2l0,6.8l-1.3,0l0,-6.8l1.3,0z" fill="#FFFFFF" id="svg_32"/>
     <path class="st1" d="m196.8,146.2c0.5,0 5.1,0 5.1,0c0.8,0 1.4,0.4 1.4,1.1l0,4.6c0,0.7 -0.6,1.1 -1.4,1.1l-5.1,0c-0.8,0 -1.4,-0.4 -1.4,-1.1l0,-4.6c0,-0.7 0.6,-1.1 1.4,-1.1zm5.3,5.8l0,-4.8l-5.4,0l0,4.8l5.4,0zm-0.8,-7.8l-1.6,1.2l-1.1,0l1.4,-1.2l1.3,0z" fill="#FFFFFF" id="svg_33"/>
     <path class="st1" d="m205.6,153l-1.3,0l0,-6.8l1.3,0l5.3,5.1l0,-5.1l1.3,0l0,6.8l-1.2,0l-5.4,-5.2l0,5.2z" fill="#FFFFFF" id="svg_34"/>
    </g>
    <rect x="110.1" y="142.9" class="st1" width="0.9" height="13.1" fill="#FFFFFF" id="svg_35"/>
   </g>
  </g>
  <g id="Capa_3"/>
  <g id="Capa_5"/>
  <g id="Capa_2_00000181052268940967458490000004136603817817753787_"/>
  <g id="Capa_4"/>
  <g id="Capa_6"/>
  <g id="Capa_7"/>
  <g id="Capa_8"/>
  <g id="Capa_10"/>
  <g id="Capa_9"/>
  <g id="Capa_11"/>
  <g id="Capa_12"/>
  <g id="Capa_13"/>
 </g>

</svg>