<?xml version="1.0" encoding="utf-8"?>
<!-- Generator: Adobe Illustrator 25.4.2, SVG Export Plug-In . SVG Version: 6.00 Build 0)  -->
<svg version="1.1" xmlns="http://www.w3.org/2000/svg" xmlns:xlink="http://www.w3.org/1999/xlink" x="0px" y="0px"
	 width="219.936px" height="75.514px" viewBox="0 0 219.936 75.514" enable-background="new 0 0 219.936 75.514"
	 xml:space="preserve">
<g id="Capa_1">
</g>
<g id="Capa_3">
	<g>
		<polygon fill="#2EB09C" points="40.341,14.737 14.154,23.578 14.154,55.037 50.407,55.037 50.407,29.634 24.092,29.634 
			24.092,45.073 40.341,45.073 40.341,31.767 44.18,31.767 44.18,48.912 20.424,48.912 20.424,25.796 54.202,25.796 54.202,58.934 
			10.316,58.934 10.316,20.806 44.137,9.461 44.137,23.493 40.341,23.493 		"/>
		<g>
			<path fill="#FFFFFF" d="M88.428,25.924v19.62c0,2.614-2.121,4.735-4.739,4.735H65.782c-2.617,0-4.738-2.121-4.738-4.735v-19.62
				h6.517V44.82h14.366V25.924H88.428z"/>
			<path fill="#FFFFFF" d="M118.82,50.28h-8.123l-9.477-8.818h-2.588v-5.003h10.799c0.587,0,1.064-0.476,1.064-1.064v-3.401
				c0-0.587-0.476-1.067-1.064-1.067H96.932V50.28h-6.409V25.924h21.751c2.493,0,4.51,2.02,4.51,4.51v6.517
				c0,2.49-2.017,4.51-4.51,4.51h-2.947L118.82,50.28z"/>
			<path fill="#FFFFFF" d="M166.466,25.924h-5.831L146.914,50.28h33.388L166.466,25.924z M163.179,31.972l7.003,13.149h-14.007
				L163.179,31.972z"/>
			<polygon fill="#FFFFFF" points="181.845,50.28 187.791,50.28 187.791,31.972 204.427,39.004 204.427,50.28 210.316,50.28 
				210.316,25.924 204.427,25.924 204.427,32.773 187.734,25.924 181.845,25.924 			"/>
			<path fill="#FFFFFF" d="M146.713,33.636v-2.914c0-2.65-2.147-4.797-4.794-4.797h-21.647V50.28h20.697
				c2.679,0,5.744-1.899,5.744-4.853v-3.632c0-1.912-1.221-3.515-2.966-3.955C145.402,37.046,146.713,35.565,146.713,33.636z
				 M140.653,34.031c0,0.679-0.548,1.227-1.227,1.227h-10.913v4.918h10.913c0.679,0,1.227,0.552,1.227,1.23v2.428
				c0,0.679-0.548,1.23-1.227,1.23h-12.715V30.859h12.715c0.679,0,1.227,0.548,1.227,1.227V34.031z"/>
		</g>
		<g>
			<g>
				<path fill="#FFFFFF" d="M64.615,53.828l3.019,5.219h-0.955l-0.737-1.275h-3.383l-0.751,1.275H60.86l3.07-5.219H64.615z
					 M65.519,57.035l-1.261-2.173l-1.283,2.173H65.519z"/>
				<path fill="#FFFFFF" d="M73.924,59.047h-1.218l-2.261-2.086h-1.356v2.086h-0.948v-5.219h4.324c0.598,0,1.072,0.309,1.072,0.852
					v1.422c0,0.55-0.474,0.859-1.072,0.859h-0.831L73.924,59.047z M72.312,54.606h-3.223v1.577h3.194
					c0.204,0,0.299-0.067,0.299-0.221v-1.134C72.582,54.68,72.516,54.606,72.312,54.606z"/>
				<path fill="#FFFFFF" d="M75.314,53.828c0.365,0,3.806,0,3.806,0c0.598,0,1.079,0.309,1.079,0.852v3.515
					c0,0.55-0.481,0.859-1.079,0.859h-3.806c-0.598,0-1.079-0.309-1.079-0.859V54.68C74.235,54.137,74.716,53.828,75.314,53.828z
					 M79.237,54.606h-4.04v3.663H77.4l-0.503-0.966l0.7-0.335l0.744,1.302h0.897V54.606z M78.8,59.054l0.554,0.953h-1.087
					l-0.474-0.953H78.8z"/>
				<path fill="#FFFFFF" d="M81.845,58.269h3.624v-4.441h0.977v4.361c0,0.55-0.496,0.859-1.094,0.859h-3.391
					c-0.598,0-1.079-0.309-1.079-0.859v-4.361h0.962V58.269z"/>
				<path fill="#FFFFFF" d="M88.128,53.828v5.219h-0.963v-5.219H88.128z"/>
				<path fill="#FFFFFF" d="M91.868,59.047h-0.962v-4.441h-2.312v-0.778h5.651v0.778h-2.377V59.047z"/>
				<path fill="#FFFFFF" d="M99.77,54.606h-4.04v1.463h2.384v0.765h-2.384v1.436h4.083v0.778h-5.038v-5.219h4.995V54.606z"/>
				<path fill="#FFFFFF" d="M104.996,54.606h-3.537v3.663h3.537v-1.134l0.955,0.228v0.832c0,0.55-0.481,0.852-1.072,0.852h-3.303
					c-0.598,0-1.072-0.302-1.072-0.852V54.68c0-0.543,0.474-0.852,1.072-0.852h3.303c0.591,0,1.072,0.309,1.072,0.852v0.946
					l-0.955,0.201V54.606z"/>
				<path fill="#FFFFFF" d="M109.712,59.047h-0.962v-4.441h-2.312v-0.778h5.651v0.778h-2.377V59.047z"/>
				<path fill="#FFFFFF" d="M113.545,58.269h3.624v-4.441h0.977v4.361c0,0.55-0.496,0.859-1.094,0.859h-3.391
					c-0.598,0-1.079-0.309-1.079-0.859v-4.361h0.962V58.269z"/>
				<path fill="#FFFFFF" d="M124.663,59.047h-1.218l-2.261-2.086h-1.356v2.086h-0.948v-5.219h4.324c0.598,0,1.072,0.309,1.072,0.852
					v1.422c0,0.55-0.474,0.859-1.072,0.859h-0.831L124.663,59.047z M123.051,54.606h-3.223v1.577h3.194
					c0.204,0,0.299-0.067,0.299-0.221v-1.134C123.321,54.68,123.255,54.606,123.051,54.606z"/>
				<path fill="#FFFFFF" d="M128.459,53.828l3.019,5.219h-0.955l-0.736-1.275h-3.383l-0.751,1.275h-0.948l3.07-5.219H128.459z
					 M129.364,57.035l-1.261-2.173l-1.283,2.173H129.364z"/>
			</g>
			<g>
				<path fill="#FFFFFF" d="M145.482,54.619h-3.446v3.506h3.446V57.04l0.931,0.218v0.796c0,0.527-0.469,0.815-1.045,0.815h-3.219
					c-0.583,0-1.044-0.289-1.044-0.815V54.69c0-0.52,0.462-0.815,1.044-0.815h3.219c0.576,0,1.045,0.295,1.045,0.815v0.905
					l-0.931,0.193V54.619z"/>
				<path fill="#FFFFFF" d="M148.159,53.875c0.355,0,3.709,0,3.709,0c0.583,0,1.052,0.295,1.052,0.815v3.364
					c0,0.527-0.469,0.815-1.052,0.815h-3.709c-0.583,0-1.052-0.289-1.052-0.815V54.69C147.107,54.17,147.576,53.875,148.159,53.875z
					 M151.982,58.125v-3.506h-3.937v3.506H151.982z"/>
				<path fill="#FFFFFF" d="M154.552,58.87h-0.931v-4.995h0.959l3.894,3.749v-3.749h0.938v4.995h-0.938l-3.923-3.762V58.87z"/>
				<path fill="#FFFFFF" d="M161.158,53.875c0.363,0,3.205,0,3.205,0c0.576,0,1.045,0.295,1.045,0.815v0.353l-0.924,0.237v-0.661
					h-3.439V56h3.297c0.569,0,1.066,0.283,1.066,0.803v1.246c0,0.527-0.469,0.822-1.045,0.822h-3.297
					c-0.583,0-1.045-0.295-1.045-0.822v-0.372l0.931-0.238v0.687h3.525v-1.387h-3.319c-0.583,0-1.044-0.295-1.044-0.822V54.69
					C160.113,54.17,160.575,53.875,161.158,53.875z"/>
				<path fill="#FFFFFF" d="M169.057,58.87h-0.938v-4.25h-2.253v-0.745h5.507v0.745h-2.317V58.87z"/>
				<path fill="#FFFFFF" d="M177.511,58.87h-1.187l-2.203-1.997H172.8v1.997h-0.924v-4.995h4.214c0.583,0,1.044,0.295,1.044,0.815
					v1.361c0,0.526-0.462,0.822-1.044,0.822h-0.81L177.511,58.87z M175.941,54.619H172.8v1.509h3.112
					c0.199,0,0.291-0.064,0.291-0.212v-1.085C176.204,54.69,176.14,54.619,175.941,54.619z"/>
				<path fill="#FFFFFF" d="M178.746,58.125h3.532v-4.25h0.952v4.173c0,0.527-0.483,0.822-1.066,0.822h-3.304
					c-0.583,0-1.052-0.295-1.052-0.822v-4.173h0.938V58.125z"/>
				<path fill="#FFFFFF" d="M188.322,54.619h-3.446v3.506h3.446V57.04l0.931,0.218v0.796c0,0.527-0.469,0.815-1.045,0.815h-3.219
					c-0.583,0-1.044-0.289-1.044-0.815V54.69c0-0.52,0.462-0.815,1.044-0.815h3.219c0.576,0,1.045,0.295,1.045,0.815v0.905
					l-0.931,0.193V54.619z"/>
				<path fill="#FFFFFF" d="M194.346,54.619H190.9v3.506h3.446V57.04l0.931,0.218v0.796c0,0.527-0.469,0.815-1.045,0.815h-3.219
					c-0.583,0-1.044-0.289-1.044-0.815V54.69c0-0.52,0.462-0.815,1.044-0.815h3.219c0.576,0,1.045,0.295,1.045,0.815v0.905
					l-0.931,0.193V54.619z"/>
				<path fill="#FFFFFF" d="M196.916,53.875v4.995h-0.938v-4.995H196.916z"/>
				<path fill="#FFFFFF" d="M198.642,53.875c0.355,0,3.709,0,3.709,0c0.583,0,1.052,0.295,1.052,0.815v3.364
					c0,0.527-0.469,0.815-1.052,0.815h-3.709c-0.583,0-1.052-0.289-1.052-0.815V54.69C197.591,54.17,198.06,53.875,198.642,53.875z
					 M202.465,58.125v-3.506h-3.937v3.506H202.465z"/>
				<path fill="#FFFFFF" d="M205.035,58.87h-0.931v-4.995h0.959l3.894,3.749v-3.749h0.938v4.995h-0.938l-3.923-3.762V58.87z"/>
			</g>
			<rect x="135.396" y="51.539" fill="#FFFFFF" width="0.654" height="9.582"/>
			<polygon fill="#FFFFFF" points="202.465,52.247 200.888,53.47 199.789,53.47 201.229,52.247 			"/>
		</g>
	</g>
</g>
<g id="Capa_5">
</g>
<g id="Capa_2">
</g>
<g id="Capa_4">
</g>
<g id="Capa_6">
</g>
<g id="Capa_7">
</g>
<g id="Capa_8">
</g>
<g id="Capa_10">
</g>
<g id="Capa_9">
</g>
<g id="Capa_11">
</g>
<g id="Capa_12">
</g>
<g id="Capa_13">
</g>
</svg>
