<svg xmlns="http://www.w3.org/2000/svg" width="219.936" height="164.331" xml:space="preserve"><path fill="#2EB09C" d="M124.858 17.373 76.614 33.66v57.957h66.787v-46.8h-48.48v28.444h29.937V48.746h7.071v31.586H88.164V37.746h62.23v61.051H69.542V28.553l62.309-20.901v25.851h-6.993z"/><g fill="#FFF"><path d="M45.026 107.693v26.965a6.51 6.51 0 0 1-6.513 6.508h-24.61a6.51 6.51 0 0 1-6.512-6.508v-26.965h8.957v25.969h19.744v-25.969h8.934zM86.797 141.166H75.633l-13.025-12.119h-3.557v-6.876h14.842c.807 0 1.462-.655 1.462-1.462v-4.674c0-.807-.655-1.467-1.462-1.467H56.714v26.597h-8.809v-33.473h29.894a6.197 6.197 0 0 1 6.199 6.199v8.957a6.198 6.198 0 0 1-6.199 6.199h-4.05l13.048 12.119zM152.28 107.693h-8.014l-18.858 33.473h45.887l-19.015-33.473zm-4.518 8.312 9.625 18.072h-19.25l9.625-18.072zM173.416 141.166h8.171v-25.161l22.865 9.664v15.497h8.093v-33.473h-8.093v9.412l-22.943-9.412h-8.093zM125.132 118.291v-4.005a6.591 6.591 0 0 0-6.589-6.593h-29.75v33.473h28.445c3.682 0 7.894-2.61 7.894-6.67v-4.992c0-2.628-1.678-4.831-4.077-5.436 2.274-1.089 4.077-3.126 4.077-5.777zm-8.329.543c0 .933-.754 1.686-1.686 1.686h-14.999v6.759h14.999c.933 0 1.686.758 1.686 1.691v3.337c0 .933-.754 1.691-1.686 1.691H97.642v-19.524h17.475c.933 0 1.686.754 1.686 1.686v2.674z"/></g><text transform="matrix(1.0869 0 0 1 7.582 153.244)" fill="#FFF" font-family="'OPTIBankGothic-Medium'" font-size="9.197">ARQUITECTURA</text><text transform="matrix(1.1069 0 0 1 117.265 153.001)" fill="#FFF" font-family="'OPTIBankGothic-Medium'" font-size="8.802">Construcción</text><path fill="#FFF" d="M110.069 142.946h.897v13.141h-.897z"/></svg>