<svg width="410" height="250" xmlns="http://www.w3.org/2000/svg" xml:space="preserve" version="1.1">

 <g>
  <title>Layer 1</title>
  <g id="svg_1">
   <g id="svg_2">
    <g id="svg_3">
     <polygon id="svg_4" fill="#80802C" points="410,124.7 410,128.3 205.2,238.6 0,128.2 0,124.7 205,235.2    " class="st0"/>
     <polygon id="svg_5" fill="#909D48" points="205,235.2 0,124.7 207.2,15.4 410,124.7    " class="st1"/>
    </g>
    <polygon id="svg_6" fill="#757575" points="113.5,154.2 191.6,112.3 126.6,77.3 48.5,119.2   " class="st2"/>
    <g id="svg_7">
     <g id="svg_8">
      <path id="svg_9" fill="#A2A19D" d="m239.9,45.3l-27.3,-14.7c-5.5,-2.9 -10.9,-5 -16.1,-6.3l-3,-0.7c-5.2,-1.2 -10.7,-3.3 -16.1,-6.3l-11.1,-6l-2.5,1.3l14,44l0,-23.9l50.6,27.3l0,23.9l11.5,6.2l0,-44.8l0,0z" class="st3"/>
      <polygon id="svg_10" fill="#6A7B80" points="259.2,136.3 259.2,153.5 268.1,158.2 268.3,140.6     " class="st4"/>
      <path id="svg_11" fill="#9C9C9C" d="m258.4,135.3l0,18.9l9.7,5.2l0,-18.9l-9.7,-5.2zm8.9,22.5l0,0l-8.1,-4.4l0,0l0,-16.7l0,0l8.1,4.4l0,0l0,16.7z" class="st5"/>
      <polygon id="svg_12" fill="#7B7778" points="267.1,159.9 257.4,154.7 258.4,154.2 268.1,159.4     " class="st6"/>
      <polygon id="svg_13" fill="#808080" points="257.4,135.2 257.4,154.7 258.4,154.2 258.4,134.7     " class="st7"/>
      <g id="svg_14">
       <g id="svg_15">
        <g id="svg_16">
         <polygon id="svg_17" fill="#B5B5B5" points="226.4,136.3 212.9,129 217.6,126.4 231.2,133.7        " class="st8"/>
        </g>
       </g>
       <path id="svg_18" fill="#694C31" d="m217.7,105.6l0,21.7l11.8,6.3l0,-21.7l-11.8,-6.3z" class="st9"/>
       <polygon id="svg_19" fill="#9E9E9E" points="214,104.8 214,128.3 217.7,126.4 217.7,103      " class="st10"/>
       <polygon id="svg_20" fill="#9E9E9E" points="96.1,75.9 96.1,100.6 100,98.5 100,73.8      " class="st10"/>
      </g>
      <polygon id="svg_21" fill="#6A7B80" points="243.1,137.9 251.1,142.2 251.1,125.5 243.1,121.2     " class="st4"/>
      <g id="svg_22">
       <g id="svg_23">
        <path id="svg_24" fill="#9C9C9C" d="m242.3,119.6l0,18.9l9.7,5.2l0,-18.9l-9.7,-5.2zm8.8,22.6l-8.1,-4.4l0,-16.7l8.1,4.4l0,16.7z" class="st5"/>
       </g>
      </g>
      <g id="svg_25">
       <g id="svg_26">
        <polygon id="svg_27" fill="#7B7778" points="249.4,143.5 241.3,139.1 242.3,138.6 250.3,142.9       " class="st6"/>
        <polygon id="svg_28" fill="#9E9E9E" points="241.3,119.6 241.3,139.1 242.3,138.6 242.3,119.1       " class="st10"/>
        <rect id="svg_29" fill="#2E4216" height="16.7" width="0" class="st11" y="141.1" x="267.3"/>
       </g>
       <rect id="svg_30" fill="#2E4216" height="16.7" width="0" class="st11" y="141.1" x="267.3"/>
      </g>
      <path id="svg_31" fill="#C5C9CC" d="m237.4,46.6l-27.3,-14.7c-5.5,-2.9 -10.9,-5 -16.1,-6.3l-3,-0.7c-5.2,-1.2 -10.7,-3.3 -16.1,-6.3l-11.1,-6l0,39.1l11.5,6.2l0,-23.8l50.7,27.3l0,23.9l11.5,6.2l-0.1,-44.9l0,0z" class="st12"/>
      <polygon id="svg_32" fill="#9E9E9E" points="166.1,14 166.1,37.5 87,80.1 87,56.7     " class="st10"/>
      <polygon id="svg_33" fill="#808080" points="166.1,16.2 87,58.9 160.7,98.6 239.9,55.9     " class="st7"/>
      <path id="svg_34" fill="#A2A19D" d="m160.7,87.9l-27.3,-14.7c-5.5,-2.9 -10.9,-5 -16.1,-6.3l-3,-0.7c-5.3,-1.2 -10.7,-3.3 -16.2,-6.2l-11.1,-6l-2.5,1.3l64.7,47.3l11.5,-14.7z" class="st3"/>
      <polygon id="svg_35" fill="#9E9E9E" points="239.9,45.3 239.9,90.2 158.3,134.1 158.3,89.2     " class="st10"/>
      <path id="svg_36" fill="#A2A19D" d="m273.3,69.1c5.5,2.9 10.9,5 16.1,6.3l3,0.7c4.4,1 8.9,2.6 13.4,4.8c0.9,0.4 1.8,0.9 2.8,1.4l27.3,14.7l0,44.9l-30.1,-16.2l-68.4,-73.2l2.5,-1.3l33.4,17.9z" class="st3"/>
      <path id="svg_37" fill="#C5C9CC" d="m270.8,70.4c5.5,2.9 10.9,5 16.1,6.3l3,0.7c4.4,1 8.9,2.6 13.4,4.8c0.9,0.4 1.8,0.9 2.8,1.4l27.3,14.7l0,44.9l-30,-16.2l-65.9,-35.5l0,-39.1l33.3,18z" class="st12"/>
      <g id="svg_38">
       <polygon id="svg_39" fill="#6A7B80" points="210.8,116.2 197.8,109.2 197.8,95.8 210.8,102.8      " class="st4"/>
       <polygon id="svg_40" fill="#7B7778" points="196.8,93 196.8,109.7 197.8,109.2 197.8,92.5      " class="st6"/>
       <polygon id="svg_41" fill="#7B7778" points="209.8,116.7 196.8,109.7 197.8,109.2 210.8,116.2      " class="st6"/>
       <g id="svg_42">
        <g id="svg_43">
         <path id="svg_44" fill="#9C9C9C" d="m196,94.8l0,15.6l14.6,7.9l0,-15.6l-14.6,-7.9zm0.8,1.6l13,7l0,13.4l-13,-7l0,-13.4z" class="st5"/>
        </g>
       </g>
       <polygon id="svg_45" fill="#7B7778" points="209.6,118.8 195,110.9 196,110.4 210.6,118.3      " class="st6"/>
       <polygon id="svg_46" fill="#9E9E9E" points="195,91.5 195,110.9 196,110.4 196,90.9      " class="st10"/>
      </g>
      <polygon id="svg_47" fill="#808080" points="237.4,54.6 190.4,79.9 286.5,131.6 333.5,106.3     " class="st7"/>
      <path id="svg_48" fill="#A2A19D" d="m192.9,76.4l-2.5,1.3l26.4,17.8l13.6,7.3l25.9,4.7l2.5,-1.3c-4.5,-2.2 -9,-3.8 -13.4,-4.8l-3,-0.7c-5.2,-1.2 -10.7,-3.3 -16.1,-6.3l-33.4,-18z" class="st3"/>
      <g id="svg_49">
       <polyline id="svg_50" fill="#808080" points="215.8,127.4 214,128.3 219.6,128.3 219.6,113.5 227.6,117.7 227.6,112.8 217.7,107.5        217.7,126.5 217.6,126.4      " class="st7"/>
       <path id="svg_51" fill="#C5C9CC" d="m190.4,77.7l0,39.1l23.6,12.7l0,-24l13.6,7.3l0,24l28.8,15.5l0,-44.8c-4.5,-2.2 -9,-3.8 -13.4,-4.8l-3,-0.7c-5.2,-1.2 -10.7,-3.3 -16.1,-6.3l-33.5,-18zm50.9,42.6l9.6,5.2l0,18.8l-9.6,-5.2l0,-18.8zm-46.3,-25l14.6,7.9l0,15.6l-14.6,-7.9l0,-15.6z" class="st12"/>
       <polygon id="svg_52" fill="#808080" points="226.4,137.4 228.8,137.4 228.8,136.4 227.6,135.6 227.6,136.8      " class="st7"/>
      </g>
      <polygon id="svg_53" fill="#808080" points="245.2,126.7 245.2,124 247.8,125.3 248.7,125.9 250.9,127.1 250.9,125.4 242.3,120.7 242.3,138.6       241.3,139.1 243.2,139.1 243.2,138 244.2,134.6 245.2,127.3     " class="st7"/>
      <polygon id="svg_54" fill="#9E9E9E" points="261.4,107.5 261.4,119.4 251.5,124.7 251.5,112.9     " class="st10"/>
      <polyline id="svg_55" fill="#808080" points="101.2,79.5 100,78.9 100,98.5 96.1,100.6 106,100.6 106,86.2 146.7,107.8 146.7,104 102.2,80           " class="st7"/>
      <path id="svg_56" fill="#C5C9CC" d="m158.3,89.2l-27.3,-14.7c-5.5,-2.9 -10.9,-5 -16.1,-6.3l-3,-0.7c-5.2,-1.2 -10.7,-3.3 -16.1,-6.3l-11.1,-6l0,39.1l11.5,6.2l0,-23.8l50.7,27.3l0,23.9l11.5,6.2l-0.1,-44.9l0,0z" class="st12"/>
      <g id="svg_57">
       <g id="svg_58">
        <polygon id="svg_59" fill="#C7C7C7" points="226.4,137.4 212.9,130.1 212.9,129 226.4,136.3       " class="st13"/>
       </g>
      </g>
      <g id="svg_60">
       <g id="svg_61">
        <polygon id="svg_62" fill="#B5B5B5" points="227.6,135.6 214,128.3 212.9,129 226.4,136.3       " class="st8"/>
       </g>
      </g>
      <g id="svg_63">
       <g id="svg_64">
        <polygon id="svg_65" fill="#9C9C9C" points="226.4,137.4 227.6,136.8 227.6,135.6 226.4,136.3       " class="st5"/>
       </g>
      </g>
      <path id="svg_66" fill="#808080" d="m333.5,106.3l-54.3,29.2l-30.1,-16.2l54.3,-29.2c0.9,0.5 30.1,16.2 30.1,16.2z" class="st7"/>
      <path id="svg_67" fill="#A2A19D" d="m251.4,110.2l-2.5,1.3l30.1,16.2l2.5,-1.4l-27.3,-14.7c-0.9,-0.5 -1.9,-1 -2.8,-1.4z" class="st3"/>
      <path id="svg_68" fill="#A2A19D" d="m248.9,111.5l2.6,1.3l9.8,-5.3l-2.5,-1.4l-9.9,5.4z" class="st3"/>
      <path id="svg_69" fill="#A2A19D" d="m331,97l2.5,1.3l-54.4,29.3l-2.5,-1.3c0.9,0.5 54.4,-29.3 54.4,-29.3z" class="st3"/>
      <path id="svg_70" fill="#C5C9CC" d="m248.9,111.5l0,44.8l30.1,16.2l0,-44.9l-27.3,-14.7c-0.9,-0.5 -1.8,-1 -2.8,-1.4zm8.5,24.3l9.7,5.2l0,18.9l-9.7,-5.2l0,-18.9l0,0z" class="st12"/>
      <polygon id="svg_71" fill="#808080" display="none" points="190.4,116.8 190.4,77.7 200.6,83.2 206.9,92.4 207,92 208.4,94.1 208.4,94.6 211.3,98.8       211.3,127.9 199.3,134.1 170.4,134.1 199.3,134.1 217.6,144.3 224.6,148 216.4,152.6 202.8,152.6 201.1,149.6 192.6,146.2       190.9,146.2 188.7,144.2 180.4,139.7 178.9,139.7 177.7,137.6 163.3,131.4     " class="st14"/>
      <polygon id="svg_72" fill="#A2A19D" points="163.7,12.6 166.1,14 87,56.7 84.5,55.3     " class="st3"/>
      <polygon id="svg_73" fill="#A2A19D" points="234.9,45.3 237.4,46.6 158.3,89.2 155.8,87.9     " class="st3"/>
      <g id="svg_74">
       <polygon id="svg_75" fill="#6A7B80" points="284.4,159.1 298.3,151.7 298.3,137.2 284.5,144.6      " class="st4"/>
       <g id="svg_76">
        <g id="svg_77">
         <path id="svg_78" fill="#9C9C9C" d="m284.5,144.6l0,15.6l14.6,-7.9l0,-15.6l-14.6,7.9zm13.8,7.1l-13,7l0,-13.4l13,-7l0,13.4z" class="st5"/>
        </g>
       </g>
       <polygon id="svg_79" fill="#7B7778" points="285.4,160.7 300,152.9 299.1,152.4 284.5,160.2      " class="st6"/>
       <polygon id="svg_80" fill="#808080" points="300,133.4 300,152.9 299.1,152.4 299.1,132.9      " class="st7"/>
      </g>
      <g id="svg_81">
       <polygon id="svg_82" fill="#6A7B80" points="313.6,143.4 326.6,136.4 326.6,123 313.6,130.1      " class="st4"/>
       <g id="svg_83">
        <g id="svg_84">
         <path id="svg_85" fill="#9C9C9C" d="m312.8,129.4l0,15.6l14.6,-7.9l0,-15.6l-14.6,7.9zm13.8,7l-13,7l0,-13.4l13,-7l0,13.4z" class="st5"/>
        </g>
       </g>
       <polygon id="svg_86" fill="#7B7778" points="313.8,145.5 328.4,137.6 327.4,137.1 312.8,145      " class="st6"/>
       <polygon id="svg_87" fill="#9E9E9E" points="328.4,118.2 328.4,137.6 327.4,137.1 327.4,117.6      " class="st10"/>
      </g>
      <path id="svg_88" fill="#9E9E9E" d="m279.1,127.6l0,44.9l56.9,-30.6l0,-44.9l-56.9,30.6zm34.7,2.3l14.6,-7.9l0,15.6l-14.6,7.9l0,-15.6zm-28.4,15.3l14.6,-7.9l0,15.6l-14.6,7.9l0,-15.6z" class="st10"/>
     </g>
    </g>
    <polygon id="svg_89" fill="#808080" points="279.1,172.5 310.9,172.5 362,145.1 335.9,129.6 335.9,141.9   " class="st7"/>
    <g id="svg_90">
     <path id="svg_91" fill="#808080" d="m128.9,68.5c7.7,3.5 31.7,16.8 31.7,16.8l-2.4,1.3l-24.9,-13.4c-5.5,-2.9 -10.9,-5 -16.1,-6.3l-3,-0.7c-5.2,-1.2 -10.6,-3.3 -16.1,-6.2l-6.6,-3.6l0,0l74.6,-40.2l0,-2.2l2.5,2.6l0,1.1l-71.6,39l12.5,6.4c0,0 11.7,1.9 19.4,5.4z" class="st7"/>
    </g>
    <polygon id="svg_92" fill="#808080" points="261.3,142.3 261.3,139.6 263.9,141 264.9,141.5 267.1,142.7 267.1,141 258.4,136.3 258.4,154.2     257.4,154.7 259.3,154.7 259.3,153.6 260.9,154.4 261.3,142.9   " class="st7"/>
    <g id="svg_93">
     <path id="svg_94" fill="#808080" d="m192.9,76.4l2.1,1.1l42.4,-22.8l0,-2.2l2.5,-1.3l16.1,8.5l-5.2,0l0,2.2l-41,21.9l31.1,16.5c-4.7,-1.3 -9.6,-3.2 -14.5,-5.9l-19.9,-10.7l0,0l-3.3,-1.8l-2.4,1.3l-10.2,-5.5l2.3,-1.3z" class="st7"/>
     <g id="svg_95">
      <polygon id="svg_96" fill="#808080" points="279.4,125.1 258.9,114.1 261.4,112.8 261.4,108.7 269,113.2 264.5,115.7 280.8,124.4     " class="st7"/>
     </g>
    </g>
   </g>
   <polygon id="svg_97" fill="#808080" points="200.6,83.3 190.4,77.8 190.4,116.9 158.3,134.2 199.3,134.2 211.3,128 211.3,98.9  " class="st7"/>
  </g>
 </g>
</svg>