<svg width="521.6" height="521.5" xmlns="http://www.w3.org/2000/svg" xml:space="preserve" version="1.1">

 <g>
  <title>Layer 1</title>
  <g id="svg_1">
   <path id="svg_2" fill="#2E8C80" d="m135.7,32.8l7.3,13.5c-118.6,64.4 -162.4,212.8 -97.9,331.3c20.9,38.4 50.6,69 85.2,90.6l-8.1,13c-36.8,-22.9 -68.4,-55.4 -90.6,-96.3c-68.5,-125.9 -21.9,-283.6 104.1,-352.1z" class="st0"/>
   <path id="svg_3" fill="#2E8C80" d="m135.7,32.8l7.3,13.5c-118.6,64.4 -162.4,212.8 -97.9,331.3c20.9,38.4 50.6,69 85.2,90.6l-8.1,13c-36.8,-22.9 -68.4,-55.4 -90.6,-96.3c-68.5,-125.9 -21.9,-283.6 104.1,-352.1z" class="st0"/>
  </g>
  <g id="svg_4">
   <path id="svg_5" fill="#333333" d="m490,135.7c22.3,41 32.4,85.4 31.5,129l0,0l-15.3,-0.3c0.8,-41 -8.7,-82.8 -29.7,-121.4c-64.4,-118.6 -212.7,-162.4 -331.3,-97.9l-7.3,-13.5c126,-68.5 283.6,-21.9 352.1,104.1z" class="st1"/>
   <path id="svg_6" fill="#333333" d="m490,135.7c22.3,41 32.4,85.4 31.5,129l0,0l-15.3,-0.3c0.8,-41 -8.7,-82.8 -29.7,-121.4c-64.4,-118.6 -212.7,-162.4 -331.3,-97.9l-7.3,-13.5c126,-68.5 283.6,-21.9 352.1,104.1z" class="st1"/>
  </g>
  <g id="svg_7">
   <path id="svg_8" fill="#222222" d="m521.7,266.8c-1.8,90.2 -50.7,176.9 -135.6,223.1c-85.2,46.3 -184.8,40 -261.5,-7.8l8.1,-13c72.2,45 166,50.9 246.1,7.4c79.9,-43.5 125.9,-125 127.6,-209.9l15.3,0.2z" class="st2"/>
  </g>
 </g>
</svg>