<?xml version="1.0" encoding="utf-8"?>
<!-- Generator: Adobe Illustrator 26.3.1, SVG Export Plug-In . SVG Version: 6.00 Build 0)  -->
<svg version="1.1" id="Capa_1" xmlns="http://www.w3.org/2000/svg" xmlns:xlink="http://www.w3.org/1999/xlink" x="0px" y="0px"
	 width="210px" height="205px" viewBox="0 0 210 205" enable-background="new 0 0 210 205" xml:space="preserve">
<g>
	<path fill="#A9A9A9" d="M170.615,200.02h6.94c10.06-7.62,18.73-16.979,25.57-27.62v-7.91
		C195.225,178.73,184.045,190.91,170.615,200.02z M112.925,7.44c-59.09,0-107.16,48.08-107.16,107.16
		c0,34.84,16.71,65.84,42.53,85.42h6.94c-27.38-18.56-45.41-49.93-45.41-85.42c0-56.85,46.25-103.1,103.1-103.1
		c38.77,0,72.6,21.5,90.2,53.21v-7.9C184.055,27.14,150.745,7.44,112.925,7.44z"/>
	<path fill="#A9A9A9" d="M112.925,191.44c-1.12,0-2.03,0.91-2.03,2.03v6.55h4.06v-6.55
		C114.955,192.35,114.045,191.44,112.925,191.44z M112.925,21.24c-51.48,0-93.36,41.88-93.36,93.36c0,38.09,22.92,70.92,55.7,85.42
		h11.61c-13.5-4.12-25.66-11.36-35.62-20.88l7.34-7.34c0.79-0.79,0.79-2.07,0-2.86c-0.8-0.8-2.08-0.8-2.87,0l-7.34,7.33
		c-14.9-15.59-24.22-36.55-24.74-59.64h10.41c1.12,0,2.03-0.91,2.03-2.03c0-1.12-0.91-2.02-2.03-2.02h-10.41
		c0.52-23.1,9.84-44.06,24.74-59.65l7.34,7.34c0.4,0.4,0.91,0.59,1.43,0.59s1.04-0.19,1.44-0.59c0.79-0.79,0.79-2.07,0-2.87
		l-7.34-7.33c15.59-14.9,36.55-24.23,59.64-24.75v10.42c0,1.12,0.91,2.02,2.03,2.02c1.12,0,2.03-0.9,2.03-2.02V25.32
		c23.09,0.52,44.05,9.85,59.64,24.75l-7.34,7.33c-0.79,0.8-0.79,2.08,0,2.87c0.4,0.4,0.92,0.59,1.44,0.59
		c0.51,0,1.03-0.19,1.43-0.59l7.33-7.33c14.91,15.58,24.23,36.54,24.75,59.64h-10.41c-1.12,0-2.03,0.9-2.03,2.02
		c0,1.12,0.91,2.03,2.03,2.03h10.41c-0.52,23.09-9.84,44.05-24.75,59.64l-7.33-7.33c-0.79-0.8-2.08-0.8-2.87,0
		c-0.79,0.79-0.79,2.07,0,2.86l7.34,7.34c-9.96,9.52-22.12,16.76-35.62,20.88h11.61c25.61-11.33,45.2-33.84,52.54-61.31V90.49
		C192.475,50.66,156.075,21.24,112.925,21.24z"/>
	<path fill="#A9A9A9" d="M111.587,65.325l4.983,4.983c0.792,0.792,2.075,0.792,2.867,0c0.792-0.791,0.792-2.075,0-2.867l-6.499-6.5
		c-0.394-0.394-0.944-0.617-1.49-0.593c-0.557,0.016-1.083,0.26-1.455,0.676l-6.287,7.033c-0.746,0.835-0.674,2.116,0.161,2.863
		c0.386,0.345,0.87,0.516,1.35,0.516c0.557,0,1.112-0.228,1.513-0.676L111.587,65.325z"/>
	<path fill="#A9A9A9" d="M139.707,106.698c-0.834-0.745-2.117-0.675-2.862,0.161c-0.747,0.835-0.675,2.116,0.16,2.862l5.433,4.858
		l-4.983,4.984c-0.792,0.792-0.792,2.075,0,2.867c0.396,0.396,0.915,0.594,1.433,0.594c0.519,0,1.037-0.198,1.433-0.594l6.5-6.5
		c0.394-0.394,0.609-0.933,0.593-1.49c-0.016-0.557-0.26-1.083-0.676-1.454L139.707,106.698z"/>
	<path fill="#A9A9A9" d="M138.356,116.631c1.12,0,2.027-0.908,2.027-2.027c0-1.12-0.908-2.027-2.027-2.027h-22.156
		c-0.516-1.194-1.473-2.151-2.667-2.668v-40.5c0-1.12-0.908-2.027-2.027-2.027s-2.027,0.908-2.027,2.027v40.5
		c-1.816,0.785-3.088,2.591-3.088,4.695c0,2.825,2.29,5.115,5.115,5.115c2.104,0,3.91-1.271,4.695-3.087H138.356z"/>
</g>
</svg>
