<?xml version="1.0" encoding="utf-8"?>
<!-- Generator: Adobe Illustrator 26.3.1, SVG Export Plug-In . SVG Version: 6.00 Build 0)  -->
<svg version="1.1" id="Capa_1" xmlns="http://www.w3.org/2000/svg" xmlns:xlink="http://www.w3.org/1999/xlink" x="0px" y="0px"
	 width="386px" height="369px" viewBox="0 0 386 369" enable-background="new 0 0 386 369" xml:space="preserve">
<g>
	<rect x="3.243" y="12.386" fill="#CFCFCF" width="369.003" height="354.213"/>
	<rect x="13.754" y="2.401" fill="#2E8D80" width="369.003" height="354.213"/>
	<g>
		<path fill="#FFFFFF" d="M300.344,88.715h-14.583c-0.977,0-1.772,0.795-1.772,1.773v40.89H112.522v-40.89
			c0-0.978-0.795-1.773-1.773-1.773H96.166c-11.438,0-20.742,9.305-20.742,20.742v137.446c0,12.901,10.493,23.396,23.391,23.396
			h198.881c12.898,0,23.392-10.495,23.392-23.396V109.457C321.088,98.02,311.782,88.715,300.344,88.715z M316.966,233.665
			c-0.128-0.185-0.26-0.369-0.391-0.547l-0.186-0.256c-0.42-0.558-0.872-1.106-1.357-1.642l-0.192-0.204
			c-0.174-0.186-0.348-0.373-0.532-0.557l-0.256-0.253c-0.164-0.161-0.329-0.319-0.501-0.478l-0.287-0.26
			c-0.169-0.151-0.341-0.3-0.528-0.458l-0.277-0.231c-0.192-0.156-0.387-0.309-0.579-0.456l-0.254-0.195
			c-0.565-0.42-1.155-0.818-1.765-1.192l-0.257-0.152c-0.216-0.128-0.431-0.253-0.646-0.371l-0.339-0.182
			c-0.201-0.107-0.405-0.212-0.612-0.314l-0.366-0.177c-0.203-0.096-0.408-0.187-0.623-0.281l-0.355-0.154
			c-0.228-0.095-0.458-0.185-0.683-0.271l-0.317-0.121c-0.311-0.114-0.625-0.22-0.941-0.32l-0.123-0.039
			c-0.327-0.101-0.659-0.194-0.988-0.28l-0.339-0.083c-0.241-0.059-0.482-0.115-0.736-0.169l-0.392-0.079
			c-0.227-0.043-0.454-0.085-0.679-0.121c-0.143-0.023-0.287-0.045-0.421-0.064c-0.229-0.034-0.459-0.062-0.76-0.098l-0.35-0.036
			c-0.249-0.024-0.5-0.042-0.748-0.058l-0.366-0.024c-0.372-0.018-0.746-0.028-1.122-0.028h-9.587V92.838h12.235
			c9.166,0,16.623,7.457,16.623,16.623V233.665z M285.762,227.632h11.935c10.626,0,19.27,8.645,19.27,19.27
			c0,10.629-8.645,19.277-19.27,19.277H98.816c-10.626,0-19.271-8.647-19.271-19.277c0-10.626,8.645-19.27,19.271-19.27h11.935
			c0.977,0,1.772-0.795,1.772-1.773v-90.362h171.467v90.362C283.989,226.837,284.784,227.632,285.762,227.632z M108.403,223.514
			h-9.587c-0.376,0-0.751,0.011-1.143,0.029l-0.341,0.023c-0.252,0.016-0.504,0.034-0.752,0.058l-0.421,0.045
			c-0.231,0.027-0.46,0.055-0.685,0.087c-0.143,0.02-0.287,0.043-0.42,0.065c-0.23,0.036-0.459,0.078-0.692,0.123l-0.397,0.079
			c-0.245,0.052-0.485,0.108-0.712,0.165l-0.347,0.083c-0.337,0.088-0.67,0.182-1.001,0.285l-0.122,0.038
			c-0.315,0.099-0.627,0.206-0.952,0.324l-0.295,0.114c-0.231,0.087-0.46,0.177-0.7,0.277l-0.352,0.153
			c-0.208,0.091-0.413,0.183-0.62,0.28l-0.361,0.175c-0.206,0.101-0.409,0.206-0.616,0.316c-0.113,0.059-0.224,0.117-0.331,0.177
			c-0.219,0.121-0.435,0.246-0.649,0.373l-0.272,0.16c-0.603,0.371-1.193,0.77-1.766,1.195l-0.237,0.183
			c-0.197,0.15-0.391,0.303-0.578,0.455l-0.293,0.244c-0.175,0.147-0.347,0.296-0.519,0.45l-0.29,0.264
			c-0.167,0.155-0.333,0.313-0.518,0.495l-0.24,0.236c-0.179,0.18-0.353,0.366-0.524,0.549l-0.204,0.218
			c-0.474,0.524-0.926,1.073-1.352,1.64l-0.178,0.245c-0.134,0.182-0.267,0.367-0.393,0.551V109.461
			c0-9.166,7.457-16.623,16.623-16.623h12.235V223.514z"/>
		<path fill="#FFFFFF" d="M244.599,203.186c-0.221-0.474-0.613-0.834-1.104-1.014l-38.485-14.094v-37.104l1.92-1.428
			c0.42-0.313,0.693-0.77,0.77-1.291c0.075-0.519-0.057-1.035-0.368-1.451c-0.311-0.421-0.769-0.694-1.287-0.77
			c-0.517-0.077-1.035,0.055-1.456,0.367l-56.111,41.785c-0.864,0.646-1.043,1.876-0.398,2.743c0.626,0.838,1.854,1.027,2.703,0.427
			v57.592c0,1.081,0.879,1.96,1.96,1.96h87.954c1.081,0,1.96-0.879,1.96-1.96v-42.985c0.853,0.072,1.7-0.446,2.004-1.275
			c0.18-0.492,0.158-1.024-0.062-1.499L244.599,203.186z M238.738,204.671v42.316H205.01v-54.731L238.738,204.671z M184.711,216.203
			v30.784h-13.627v-30.784H184.711z M186.671,212.283h-17.547c-1.08,0-1.959,0.879-1.959,1.96v32.744h-12.461V188.63l46.388-34.561
			v92.919H188.63v-32.744C188.63,213.162,187.751,212.283,186.671,212.283z"/>
		<path fill="#FFFFFF" d="M213.879,236.193h17.547c1.08,0,1.959-0.879,1.959-1.96v-13.799c0-5.918-4.814-10.732-10.732-10.732
			s-10.733,4.814-10.733,10.732v13.799C211.919,235.314,212.798,236.193,213.879,236.193z M215.839,232.273v-11.839
			c0-3.757,3.057-6.813,6.813-6.813s6.813,3.057,6.813,6.813v11.839H215.839z"/>
		<path fill="#FFFFFF" d="M190.063,202.416c0-0.898-0.608-1.657-1.433-1.888v-6.69c0-5.918-4.814-10.733-10.732-10.733
			s-10.733,4.815-10.733,10.733v6.717c-0.78,0.258-1.344,0.995-1.344,1.861c0,1.081,0.879,1.96,1.96,1.96h20.323
			C189.183,204.376,190.063,203.497,190.063,202.416z M184.711,193.838v6.618h-13.627v-6.618c0-3.758,3.057-6.814,6.814-6.814
			C181.654,187.024,184.711,190.08,184.711,193.838z"/>
	</g>
</g>
</svg>
