<?xml version="1.0" encoding="utf-8"?>
<!-- Generator: Adobe Illustrator 26.3.1, SVG Export Plug-In . SVG Version: 6.00 Build 0)  -->
<svg version="1.1" id="Capa_1" xmlns="http://www.w3.org/2000/svg" xmlns:xlink="http://www.w3.org/1999/xlink" x="0px" y="0px"
	 width="386px" height="369px" viewBox="0 0 386 369" enable-background="new 0 0 386 369" xml:space="preserve">
<g>
	<rect x="12.055" y="11.221" fill="#CFCFCF" width="369.003" height="354.213"/>
	<g>
		<g>
			<rect x="4.942" y="3.566" fill="#2E8D80" width="369.003" height="354.213"/>
		</g>
		<path fill="#FFFFFF" d="M310.127,47.034l-6.296-8.582c-0.866-1.179-2.139-1.952-3.588-2.175c-1.445-0.222-2.892,0.133-4.073,0.999
			l-37.847,27.764l5.53,7.539l-12.288,12.289v18.336l-13.102,9.32l-22.451-28.178c-0.802-1.007-2.056-1.548-3.351-1.435
			c-1.291,0.115-2.429,0.865-3.045,2.004l-33.931,62.804h-36.222c-0.372-2.699-3.274-4.807-6.787-4.807
			c-0.849,0-1.685,0.123-2.465,0.361c-1.663-3.306-5.384-5.459-9.623-5.459c-1.217,0-2.436,0.187-3.574,0.546
			c-2.308-3.106-6.347-5.002-10.773-5.002c-1.6,0-3.193,0.254-4.666,0.74c-2.596-5.523-9.006-9.162-16.343-9.162
			c-9.665,0-17.529,6.453-17.529,14.384c0,4.898,3.077,9.485,8.079,12.114v40.398h31.527v38.143h-31.53v44.107h196.863v-41.126
			h31.53v-44.108H272.64v-41.13l-15.725,0.004l2.091-0.423c1.324-0.268,2.391-1.186,2.853-2.456
			c0.462-1.269,0.235-2.658-0.606-3.715l-20.931-26.27l14.223-10.117V86.102l11.091-11.092l5.465,7.45l37.847-27.765
			C311.385,52.908,311.913,49.471,310.127,47.034z M307.186,52.292l-35.443,26L262.49,65.68l35.444-26.001
			c0.539-0.396,1.196-0.559,1.858-0.455c0.659,0.101,1.24,0.453,1.635,0.992l6.296,8.581
			C308.537,49.909,308.297,51.476,307.186,52.292z M301.191,229.974h-61.646v-38.143l61.646-0.003V229.974z M78.759,232.955h61.646
			V271.1H78.759V232.955z M70.684,139.319c0-6.288,6.526-11.403,14.548-11.403c6.642,0,12.438,3.526,14.093,8.574l0.523,1.594
			l1.52-0.707c1.466-0.68,3.151-1.039,4.873-1.039c3.83,0,7.316,1.794,8.883,4.571l0.668,1.182l1.241-0.556
			c1.08-0.485,2.309-0.741,3.555-0.741c3.546,0,6.571,1.993,7.357,4.846l0.515,1.871l1.677-0.981
			c0.701-0.412,1.602-0.638,2.539-0.638c1.763,0,3.294,0.79,3.725,1.826h-60.62v0.254C72.597,145.817,70.684,142.627,70.684,139.319
			z M78.762,188.85v-38.151h61.642v38.148L78.762,188.85z M110.29,191.831h61.646v38.143H110.29V191.831z M269.659,188.847h-61.642
			V157.62l34.189-6.921h27.453V188.847z M165.707,166.185l39.329-7.962v30.624h-61.65v-38.148h30.688L165.707,166.185z
			 M143.387,232.955h61.646V271.1h-61.646V232.955z M174.917,191.831h61.646v38.143h-61.646V191.831z M269.66,232.955V271.1h-61.646
			v-38.145H269.66z M173.166,161.633c-0.334,0.066-0.655-0.056-0.862-0.335c-0.205-0.277-0.23-0.624-0.067-0.927l40.002-74.041
			c0.145-0.269,0.382-0.424,0.691-0.452c0.027-0.002,0.054-0.004,0.081-0.004c0.267,0,0.499,0.114,0.669,0.328l22.349,28.051
			l-23.256,16.542l1.729,2.428l23.387-16.635l21.032,26.397c0.193,0.242,0.242,0.547,0.136,0.838
			c-0.106,0.29-0.34,0.491-0.643,0.553L173.166,161.633z"/>
	</g>
</g>
</svg>
