<?xml version="1.0" encoding="utf-8"?>
<!-- Generator: Adobe Illustrator 25.4.2, SVG Export Plug-In . SVG Version: 6.00 Build 0)  -->
<svg version="1.1" xmlns="http://www.w3.org/2000/svg" xmlns:xlink="http://www.w3.org/1999/xlink" x="0px" y="0px" width="40px"
	 height="40px" viewBox="0 0 40 40" enable-background="new 0 0 40 40" xml:space="preserve">
<g id="Capa_1">
</g>
<g id="Capa_3">
</g>
<g id="Capa_5">
</g>
<g id="Capa_2">
</g>
<g id="Capa_4">
</g>
<g id="Capa_6">
</g>
<g id="Capa_7">
</g>
<g id="Capa_8">
</g>
<g id="Capa_10">
</g>
<g id="Capa_9">
</g>
<g id="Capa_11">
</g>
<g id="Capa_12">
</g>
<g id="Capa_13">
	<g>
		<path fill="#FFFFFF" d="M9.612,13.578c-0.044,0.14-0.089,0.281-0.089,0.435v11.974c0,0.104,0.039,0.194,0.059,0.292l6.363-7.273
			L9.612,13.578z"/>
		<path fill="#FFFFFF" d="M20.487,22.064c-0.14,0.122-0.314,0.181-0.487,0.181c-0.173,0-0.347-0.06-0.487-0.181l-2.431-2.083
			l-6.49,7.416c0.138,0.042,0.276,0.086,0.427,0.086h17.961c0.151,0,0.289-0.044,0.427-0.086l-6.49-7.416L20.487,22.064z"/>
		<path fill="#FFFFFF" d="M29.261,12.573c-0.094-0.019-0.181-0.057-0.28-0.057H11.02c-0.099,0-0.187,0.038-0.281,0.057L20,20.511
			L29.261,12.573z"/>
		<path fill="#FFFFFF" d="M20,2.676C10.432,2.676,2.676,10.432,2.676,20S10.432,37.324,20,37.324S37.324,29.568,37.324,20
			S29.568,2.676,20,2.676z M31.974,25.987c0,1.653-1.34,2.993-2.993,2.993H11.02c-1.653,0-2.994-1.34-2.994-2.993V14.013
			c0-1.653,1.34-2.993,2.994-2.993h17.961c1.653,0,2.993,1.34,2.993,2.993V25.987z"/>
		<path fill="#FFFFFF" d="M24.053,19.007l6.364,7.273c0.021-0.098,0.06-0.19,0.06-0.294V14.013c0-0.155-0.044-0.295-0.087-0.435
			L24.053,19.007z"/>
	</g>
</g>
</svg>
