<?xml version="1.0" encoding="utf-8"?>
<!-- Generator: Adobe Illustrator 25.4.2, SVG Export Plug-In . SVG Version: 6.00 Build 0)  -->
<svg version="1.1" xmlns="http://www.w3.org/2000/svg" xmlns:xlink="http://www.w3.org/1999/xlink" x="0px" y="0px" width="40px"
	 height="40px" viewBox="0 0 40 40" enable-background="new 0 0 40 40" xml:space="preserve">
<g id="Capa_1">
</g>
<g id="Capa_3">
</g>
<g id="Capa_5">
</g>
<g id="Capa_2">
</g>
<g id="Capa_4">
</g>
<g id="Capa_6">
</g>
<g id="Capa_7">
</g>
<g id="Capa_8">
</g>
<g id="Capa_10">
</g>
<g id="Capa_9">
</g>
<g id="Capa_11">
</g>
<g id="Capa_12">
</g>
<g id="Capa_13">
	<path fill-rule="evenodd" clip-rule="evenodd" fill="#FFFFFF" d="M20,2.676C10.432,2.676,2.676,10.432,2.676,20
		S10.432,37.324,20,37.324S37.324,29.568,37.324,20S29.568,2.676,20,2.676z M25.461,12.021c0,0.163-0.133,0.296-0.296,0.296h-2.359
		c-0.579,0-1.048,0.469-1.048,1.048v2.469h3.355c0.173,0,0.31,0.148,0.295,0.321l-0.294,3.481c-0.013,0.153-0.141,0.271-0.295,0.271
		h-3.06V31.46c0,0.163-0.133,0.296-0.296,0.296h-4.221c-0.164,0-0.296-0.133-0.296-0.296V20.093v-0.185h-2.111
		c-0.164,0-0.296-0.133-0.296-0.296v-3.481c0-0.164,0.133-0.296,0.296-0.296h2.111v-3.356c0-2.339,1.896-4.235,4.235-4.235h3.985
		c0.164,0,0.296,0.133,0.296,0.296V12.021z"/>
</g>
</svg>
