<svg xmlns="http://www.w3.org/2000/svg" xmlns:xlink="http://www.w3.org/1999/xlink" width="40" height="40" xml:space="preserve"><defs><path id="a" d="M1928.878 3728.431h1920v1080h-1920z"/></defs><clipPath id="b"><use xlink:href="#a" overflow="visible"/></clipPath><g clip-path="url(#b)"><image overflow="visible" width="3567" height="4958" xlink:href="../../Fotos/Herreria Artistica/pexels-matteus-silva-5994408.jpg" transform="matrix(-1 0 0 1 3866.41 475.206)"/></g><g><g fill="#FFF"><path d="M20.034 16.944a3.19 3.19 0 0 0-3.186 3.186c0 1.757 1.429 3.186 3.186 3.186s3.186-1.429 3.186-3.186a3.19 3.19 0 0 0-3.186-3.186z"/><path d="M20 2.5C10.335 2.5 2.5 10.335 2.5 20S10.335 37.5 20 37.5 37.5 29.665 37.5 20 29.665 2.5 20 2.5zm10.07 21.503a6.066 6.066 0 0 1-6.066 6.066h-8.007a6.066 6.066 0 0 1-6.066-6.066v-8.008a6.066 6.066 0 0 1 6.066-6.066h8.007a6.066 6.066 0 0 1 6.066 6.066v8.008z"/><path d="M24.003 11.831h-8.007a4.167 4.167 0 0 0-4.167 4.166v8.008a4.166 4.166 0 0 0 4.167 4.166h8.007a4.167 4.167 0 0 0 4.167-4.166v-8.008a4.167 4.167 0 0 0-4.167-4.166zm-3.969 13.273c-2.742 0-4.974-2.231-4.974-4.974s2.231-4.974 4.974-4.974c2.742 0 4.973 2.231 4.973 4.974s-2.231 4.974-4.973 4.974zm5.264-9.098a1.184 1.184 0 1 1 0-2.368 1.184 1.184 0 0 1 0 2.368z"/></g></g></svg>