<?xml version="1.0" encoding="utf-8"?>
<!-- Generator: Adobe Illustrator 25.4.2, SVG Export Plug-In . SVG Version: 6.00 Build 0)  -->
<svg version="1.1" xmlns="http://www.w3.org/2000/svg" xmlns:xlink="http://www.w3.org/1999/xlink" x="0px" y="0px" width="40px"
	 height="40px" viewBox="0 0 40 40" enable-background="new 0 0 40 40" xml:space="preserve">
<g id="Capa_1">
</g>
<g id="Capa_3">
</g>
<g id="Capa_5">
</g>
<g id="Capa_2">
</g>
<g id="Capa_4">
</g>
<g id="Capa_6">
</g>
<g id="Capa_7">
</g>
<g id="Capa_8">
</g>
<g id="Capa_10">
</g>
<g id="Capa_9">
</g>
<g id="Capa_11">
</g>
<g id="Capa_12">
</g>
<g id="Capa_13">
	<path fill="#FFFFFF" d="M20,2.676C10.432,2.676,2.676,10.432,2.676,20S10.432,37.324,20,37.324S37.324,29.568,37.324,20
		S29.568,2.676,20,2.676z M29.636,26.336c-0.612,1.487-2.134,2.443-3.677,2.736c-1.474,0.28-2.69-0.19-4.055-0.641
		c-1.217-0.402-2.392-0.989-3.484-1.657c-2.184-1.338-4.07-3.128-5.586-5.187c-0.463-0.629-0.893-1.284-1.288-1.959
		c-0.524-0.895-0.99-1.835-1.234-2.843c-0.101-0.419-0.155-0.852-0.16-1.286c-0.018-1.528,0.566-3.069,1.773-4.053
		c0.7-0.57,1.734-0.818,2.521-0.374c0.854,0.482,1.297,1.699,1.693,2.552c0.31,0.667,0.662,1.544,0.534,2.294
		c-0.128,0.75-0.721,1.382-1.194,1.938c-0.319,0.376-0.367,0.696-0.102,1.101c1.564,2.607,3.736,4.5,6.571,5.629
		c0.386,0.155,0.685,0.107,0.937-0.203c0.489-0.604,0.971-1.785,1.726-2.095c0.984-0.403,2.072,0.155,2.907,0.655
		c0.778,0.465,2.079,1.037,2.289,1.998C29.908,25.405,29.817,25.896,29.636,26.336z"/>
</g>
</svg>
