<svg xmlns="http://www.w3.org/2000/svg" xmlns:xlink="http://www.w3.org/1999/xlink" xml:space="preserve" viewBox="0 0 40 40"><defs><path id="a" d="M1928.878 3728.431h1920v1080h-1920z"/></defs><clipPath id="b"><use xlink:href="#a" overflow="visible"/></clipPath><g><path fill="#FFF" d="M20 2.5C10.335 2.5 2.5 10.335 2.5 20S10.335 37.5 20 37.5 37.5 29.665 37.5 20 29.665 2.5 20 2.5zm10.392 11.649v3.72a9.759 9.759 0 0 1-5.691-1.82v8.328a7.546 7.546 0 0 1-7.547 7.544 7.51 7.51 0 0 1-4.201-1.275l-.001-.001a7.534 7.534 0 0 1-3.346-6.267 7.544 7.544 0 0 1 8.584-7.472V21.078a3.453 3.453 0 0 0-4.501 3.289 3.449 3.449 0 0 0 3.452 3.451 3.454 3.454 0 0 0 3.453-3.438V8.08h4.107v.525a5.715 5.715 0 0 0 2.669 4.323l.07.074c-.024-.025-.047-.048-.07-.074a5.7 5.7 0 0 0 3.021.863l.001.358z"/></g></svg>