<?xml version="1.0" encoding="utf-8"?>
<!-- Generator: Adobe Illustrator 25.4.2, SVG Export Plug-In . SVG Version: 6.00 Build 0)  -->
<svg version="1.1" xmlns="http://www.w3.org/2000/svg" xmlns:xlink="http://www.w3.org/1999/xlink" x="0px" y="0px" width="40px"
	 height="40px" viewBox="0 0 40 40" enable-background="new 0 0 40 40" xml:space="preserve">
<g id="Capa_1">
</g>
<g id="Capa_3">
</g>
<g id="Capa_5">
</g>
<g id="Capa_2">
</g>
<g id="Capa_4">
</g>
<g id="Capa_6">
</g>
<g id="Capa_7">
</g>
<g id="Capa_8">
</g>
<g id="Capa_10">
</g>
<g id="Capa_9">
</g>
<g id="Capa_11">
</g>
<g id="Capa_12">
</g>
<g id="Capa_13">
	<g>
		<path fill="#FFFFFF" d="M20,11.557c-4.656,0-8.443,3.788-8.443,8.443c0,1.783,0.551,3.488,1.593,4.933
			c0.188,0.26,0.221,0.6,0.089,0.892l-0.974,2.146l2.797-0.767c0.078-0.021,0.157-0.032,0.236-0.032
			c0.157,0,0.313,0.041,0.451,0.122c1.287,0.752,2.757,1.15,4.251,1.15c4.656,0,8.443-3.788,8.443-8.443
			C28.443,15.344,24.656,11.557,20,11.557z M25.019,23.272c-0.314,0.763-1.094,1.252-1.886,1.403
			c-0.756,0.144-1.379-0.097-2.079-0.328c-0.624-0.206-1.227-0.507-1.786-0.849c-1.12-0.686-2.087-1.604-2.865-2.66
			c-0.238-0.323-0.458-0.658-0.661-1.004c-0.269-0.459-0.508-0.941-0.633-1.458c-0.052-0.215-0.079-0.437-0.082-0.659
			c-0.009-0.783,0.29-1.574,0.909-2.078c0.359-0.292,0.889-0.42,1.292-0.192c0.438,0.247,0.665,0.871,0.868,1.309
			c0.159,0.342,0.339,0.792,0.274,1.176c-0.066,0.385-0.37,0.709-0.612,0.994c-0.164,0.193-0.188,0.356-0.052,0.564
			c0.802,1.337,1.916,2.307,3.369,2.886c0.198,0.08,0.351,0.055,0.48-0.104c0.251-0.31,0.498-0.916,0.885-1.074
			c0.505-0.206,1.062,0.08,1.491,0.336c0.399,0.238,1.066,0.532,1.174,1.025C25.159,22.795,25.112,23.046,25.019,23.272z"/>
		<path fill="#FFFFFF" d="M20,2.676C10.432,2.676,2.676,10.432,2.676,20S10.432,37.324,20,37.324
			c9.568,0,17.324-7.756,17.324-17.324S29.568,2.676,20,2.676z M20,30.23c-1.682,0-3.34-0.416-4.818-1.207L10.9,30.198
			c-0.078,0.021-0.158,0.032-0.236,0.032c-0.258,0-0.507-0.112-0.68-0.314c-0.225-0.264-0.277-0.633-0.134-0.949l1.554-3.423
			C10.333,23.89,9.77,21.984,9.77,20c0-5.641,4.589-10.23,10.23-10.23S30.23,14.359,30.23,20C30.23,25.641,25.641,30.23,20,30.23z"
			/>
	</g>
</g>
</svg>
