<svg width="386" height="369" xmlns="http://www.w3.org/2000/svg" xml:space="preserve" version="1.1">

 <g>
  <title>Layer 1</title>
  <g id="svg_1">
   <rect id="svg_2" fill="#CECECE" height="354.2" width="369" class="st0" y="10.1" x="12.1"/>
   <rect id="svg_3" fill="#2E8C80" height="354.2" width="369" class="st1" y="4.7" x="4.9"/>
   <path id="svg_4" fill="#FFFFFF" d="m311,173.9l-45.5,-78.9c-0.2,-0.3 -0.4,-0.5 -0.7,-0.5c-0.3,-0.1 -0.6,0 -0.9,0.1l-23.1,13.4c-0.6,0.3 -0.7,1 -0.4,1.6l5.6,9.7c-14.7,7.8 -18.6,7.8 -19.4,7.6c-2,-0.4 -5.6,-1.7 -9.8,-3.2c-6.7,-2.3 -15.1,-5.2 -20.2,-5.9c-6.6,-0.9 -40.4,-0.5 -45.3,8.5l-19.1,-5.7l6.4,-11c0.3,-0.6 0.1,-1.3 -0.4,-1.6l-23.2,-13.4c-0.3,-0.2 -0.6,-0.2 -0.9,-0.1c-0.3,0.1 -0.5,0.3 -0.7,0.5l-45.5,78.9c-0.3,0.6 -0.1,1.3 0.4,1.6l23.1,13.4c0.3,0.2 0.6,0.2 0.9,0.1c0.3,-0.1 0.5,-0.3 0.7,-0.5l5,-8.7c3.7,0.9 9.5,3.7 17.2,11.4l-2,1.7c-3.8,3.3 -4.2,9 -0.9,12.8l3.8,4.4c1.6,1.8 3.8,2.9 6.2,3.1c1,0.1 1.9,0 2.9,-0.3c-2.6,3.3 -2.5,8.1 0.4,11.4l3.8,4.4c1.7,2 4.2,3.1 6.8,3.1c1,0 1.9,-0.2 2.8,-0.5c-0.7,1.2 -1.1,2.5 -1.2,3.9c-0.2,2.4 0.6,4.7 2.2,6.6l3.8,4.4c1.6,1.8 3.8,2.9 6.2,3.1c1.6,0.1 3.1,-0.2 4.5,-0.8l-0.3,0.3c-1.8,1.6 -2.9,3.8 -3.1,6.2c-0.2,2.4 0.6,4.7 2.2,6.6l3.8,4.4c1.7,2 4.2,3.1 6.8,3.1c2.2,0 4.3,-0.8 5.9,-2.2l17.9,-15.5c0.4,-0.4 0.8,-0.8 1.2,-1.3c2.1,1.1 3.9,1.4 4.8,1.6l8.3,7.2c1.8,1.6 4.1,2.4 6.6,2.2c2.4,-0.2 4.6,-1.3 6.2,-3.1l3.8,-4.4c1.4,-1.7 2.2,-3.8 2.2,-6l1,0.9c3.8,3.3 9.5,2.9 12.8,-0.9l3.8,-4.4c2,-2.3 2.7,-5.6 1.8,-8.5c2.9,0.3 5.8,-0.8 7.7,-3.1l3.8,-4.4c3.3,-3.8 2.9,-9.5 -0.9,-12.8l-1.3,-1.1c2.1,-0.3 4.1,-1.3 5.5,-3l3.8,-4.4c3,-3.4 2.9,-8.5 0,-11.8c1.9,-2.9 8.6,-12.3 19.7,-18.1l7.2,12.4c0.2,0.3 0.4,0.5 0.7,0.5c0.3,0.1 0.6,0 0.9,-0.1l23.1,-13.4c0.8,-0.2 0.9,-0.9 0.6,-1.5zm-58.2,34.4c-2,2.3 -5.4,2.7 -7.9,1l-7.1,-6.2c0,0 -0.1,-0.1 -0.1,-0.1l-0.3,-0.2c-0.5,-0.3 -1.1,-0.3 -1.5,0.1l-0.5,0.5c-0.2,0.2 -0.3,0.5 -0.3,0.9c0,0.3 0.2,0.6 0.4,0.8l6.9,6c0.2,0.2 0.4,0.4 0.6,0.5l5.8,5.1c2.5,2.2 2.7,5.9 0.6,8.4l-3.8,4.4c-2,2.3 -5.5,2.7 -8,0.9c-0.1,-0.1 -0.1,-0.1 -0.1,-0.1l-13.9,-12.1l-0.3,-0.3c-0.3,-0.2 -0.6,-0.3 -0.9,-0.2c-0.3,0.1 -0.6,0.2 -0.8,0.5l-0.4,0.6c-0.3,0.5 -0.2,1.1 0.2,1.5l13.8,12c0.2,0.2 0.3,0.3 0.5,0.4c2.3,2.2 2.6,5.9 0.4,8.3l-3.8,4.4c-2.2,2.5 -5.9,2.7 -8.4,0.6l-5.6,-4.9c-0.1,-0.2 -0.3,-0.3 -0.5,-0.5l-8.2,-7.1c0,0 -0.1,0 -0.1,-0.1l-0.2,-0.2c-0.4,-0.3 -0.9,-0.3 -1.3,0l-0.7,0.5c-0.3,0.2 -0.5,0.5 -0.5,0.9c0,0.4 0.1,0.7 0.4,0.9l8.9,7.8c2.1,2.2 2.2,5.7 0.2,8.1l-3.8,4.4c-1,1.2 -2.5,1.9 -4.1,2c-1.6,0.1 -3.1,-0.4 -4.3,-1.5l-8.8,-7.6c-0.2,-0.2 -0.4,-0.3 -0.7,-0.3l-0.1,0c0,0 -1.8,-0.1 -4,-1.3c0,0 0,-0.1 0,-0.1l0.1,-0.2c0.1,-0.4 0.2,-0.7 0.2,-1.1c0,0 0,0 0,0c0.1,-0.3 0.1,-0.7 0.1,-1.1c0,-0.3 0,-0.6 0,-0.9c-0.1,-2 -0.9,-3.9 -2.2,-5.4l-3.8,-4.4c-0.3,-0.4 -0.7,-0.7 -1,-1c-2.8,-2.3 -6.6,-2.8 -9.7,-1.3l5.6,-4.9c3.5,-3.1 4.2,-8.2 1.5,-12c-0.2,-0.2 -0.4,-0.5 -0.6,-0.7l-3.8,-4.4c-1.6,-1.8 -3.8,-2.9 -6.2,-3.1c-0.8,-0.1 -1.7,0 -2.4,0.2l4.1,-3.6c3.8,-3.3 4.2,-9 0.9,-12.8l-3.8,-4.4c-1.6,-1.8 -3.8,-2.9 -6.2,-3.1c-2.4,-0.2 -4.8,0.6 -6.6,2.2l-3,2.6c1.1,-3 0.5,-6.4 -1.7,-9l-3.8,-4.4c-3.3,-3.8 -9,-4.2 -12.8,-0.9l-17.9,15.6c-7.7,-7.8 -13.8,-10.9 -17.9,-12.2l30.9,-53.6l19.8,5.9c0,0.1 0,0.2 0,0.3c0,0.1 0,0.3 0,0.4c0,0.1 0,0.3 0,0.4c0,0.1 0,0.3 0,0.4c0,0.1 0,0.3 0,0.4c0,0.1 0,0.3 0,0.4c0,0.1 0,0.3 0,0.4c0,0.1 0,0.3 0,0.4c0,0.1 0,0.3 0,0.4c0,0.1 0,0.3 0.1,0.5c0,0.1 0,0.2 0.1,0.3c0,0.1 0.1,0.2 0.1,0.4c0,0 0,0.1 0,0.1c0,0.1 0.1,0.2 0.1,0.3c0,0.1 0.1,0.3 0.1,0.4l0.7,-0.2c0,0 0,0 0,0l-0.7,0.3l0.1,0.3c0,0.1 0.1,0.2 0.1,0.4l0,0.1c0,0.1 0.1,0.2 0.1,0.3c0,0.1 0.1,0.2 0.2,0.4l0,0.1c0,0.1 0.1,0.2 0.1,0.3c0.1,0.1 0.1,0.2 0.2,0.4l0.1,0.2c0,0.1 0.1,0.2 0.1,0.3c0.1,0.1 0.1,0.2 0.2,0.4l0.1,0.2c0,0.1 0.1,0.2 0.1,0.2c0.1,0.1 0.1,0.2 0.2,0.4l0.1,0.2c0,0.1 0.1,0.2 0.1,0.2c0.1,0.1 0.2,0.3 0.3,0.4l0.2,0.4c0.2,0.3 0.4,0.5 0.5,0.8c3.8,5.1 9.8,8.2 16.1,8.3c0.6,0 1.3,0 1.9,0c4.5,0 9,-0.5 12.9,-1c6.3,-0.7 11.7,-1.3 14.7,0.1c1.3,0.6 7.4,5 33.3,27.1l4.8,4.1c3,2.6 5.8,5 8.3,7.1l10.2,8.9c1.2,1 1.9,2.5 2,4.1l0,0c0.1,1.6 -0.4,3.1 -1.5,4.3l-3.5,4.7zm-137.6,-13.1l22.2,-19.3c0.1,-0.1 0.3,-0.2 0.5,-0.4l0.2,-0.1c0.1,-0.1 0.2,-0.1 0.3,-0.2l0.1,-0.1c0,0 0.1,0 0.1,0c0.1,-0.1 0.2,-0.1 0.3,-0.2l0.2,-0.1c0.1,0 0.2,-0.1 0.3,-0.1c0.1,0 0.2,0 0.2,-0.1c0.1,0 0.2,-0.1 0.3,-0.1c0.1,0 0.2,0 0.2,-0.1c0.1,0 0.2,0 0.3,-0.1c0.1,0 0.2,0 0.2,0c0.1,0 0.2,0 0.4,0l0.2,0c0,0 0,0 0,0c0,0 0.1,0 0.1,0c0,0 0.1,0 0.1,0c0.1,0 0.2,0 0.4,0c0.1,0 0.2,0 0.3,0c0.1,0 0.2,0 0.3,0.1c0.1,0 0.2,0 0.3,0.1c0.1,0 0.2,0.1 0.3,0.1c0.1,0 0.2,0 0.2,0.1c0.1,0 0.2,0.1 0.3,0.1c0.1,0 0.2,0.1 0.2,0.1c0.1,0 0.2,0.1 0.3,0.2c0,0 0.1,0 0.1,0c0.1,0 0.1,0.1 0.2,0.1c0.1,0.1 0.2,0.1 0.3,0.2l0.2,0.1c0.1,0.1 0.2,0.2 0.3,0.3l0.2,0.1c0.2,0.1 0.3,0.3 0.4,0.5l3.8,4.4c0.7,0.8 1.1,1.7 1.3,2.6c0.5,2.1 -0.3,4.4 -1.9,5.8l-22.2,19.3c0,0 0,0 0,0c-1.2,1 -2.7,1.6 -4.3,1.4c-1.6,-0.1 -3,-0.8 -4.1,-2l-3.8,-4.4c-2,-2.3 -1.7,-6.1 0.7,-8.3zm13.3,18.7l30.2,-26.3c0.1,-0.1 0.3,-0.2 0.5,-0.4l0.2,-0.1c0.1,-0.1 0.2,-0.1 0.3,-0.2l0.1,-0.1c0,0 0.1,0 0.1,0c0.1,0 0.2,-0.1 0.3,-0.1c0.1,0 0.1,-0.1 0.2,-0.1c0.1,0 0.2,-0.1 0.3,-0.1c0.1,0 0.2,-0.1 0.2,-0.1c0.1,0 0.2,-0.1 0.3,-0.1c0.1,0 0.2,0 0.3,-0.1c0.1,0 0.2,0 0.3,-0.1c0.1,0 0.2,0 0.2,0c0.1,0 0.2,0 0.4,0c0.1,0 0.2,0 0.3,0c0.1,0 0.3,0 0.4,0c1.6,0.1 3,0.8 4.1,2l3.8,4.4c0.3,0.3 0.5,0.6 0.7,1c1,1.7 1,3.8 0.2,5.5c0,0.1 -0.1,0.1 -0.1,0.2l-0.2,0.3c-0.3,0.5 -0.7,1 -1.2,1.4l-30.2,26.3c-2.5,2.2 -6.3,1.9 -8.4,-0.6l-3.8,-4.4c-2.3,-2.4 -2,-6.1 0.5,-8.3zm12.4,21.7c0.1,-1.6 0.8,-3 2,-4.1l23.2,-20.1c0.1,-0.1 0.3,-0.2 0.5,-0.4l0.1,-0.1c0.1,-0.1 0.2,-0.1 0.3,-0.2l0.2,-0.1c0.1,-0.1 0.2,-0.1 0.3,-0.1c0.1,0 0.1,0 0.2,-0.1c0.1,0 0.2,-0.1 0.3,-0.1c0.1,0 0.2,-0.1 0.3,-0.1c0.1,0 0.2,-0.1 0.3,-0.1c0.1,0 0.2,0 0.3,-0.1c0.1,0 0.2,0 0.3,0c0.1,0 0.2,0 0.3,0c0.1,0 0.2,0 0.3,0c0.1,0 0.2,0 0.4,0c0.1,0 0.3,0 0.4,0c1.6,0.1 3,0.8 4.1,2l3.8,4.4c2.2,2.5 1.9,6.3 -0.6,8.4l-23.2,20.1c-1.2,1 -2.7,1.6 -4.3,1.4c-1.6,-0.1 -3,-0.8 -4.1,-2l-3.8,-4.4c-1.2,-1.2 -1.7,-2.8 -1.6,-4.3zm15.3,15.6l17.9,-15.5c0.1,-0.1 0.3,-0.2 0.5,-0.4l0.1,-0.1c0.1,-0.1 0.2,-0.1 0.3,-0.2l0.3,-0.1c0.1,0 0.1,-0.1 0.2,-0.1l0.2,-0.1c0,0 0.1,0 0.1,0c0.1,0 0.1,-0.1 0.2,-0.1l0.2,-0.1c0,0 0.1,0 0.1,0c0.1,0 0.1,0 0.2,-0.1l0.2,0c0,0 0.1,0 0.1,0c0.1,0 0.1,0 0.2,-0.1l0.3,0c0.1,0 0.2,0 0.2,0l0.3,0c0.1,0 0.1,0 0.2,0l0.3,0c0.1,0 0.1,0 0.2,0l0.3,0c0.1,0 0.1,0 0.2,0l0.3,0.1c0.1,0 0.1,0 0.2,0l0.3,0.1c0.1,0 0.1,0 0.2,0.1l0.3,0.1c0.1,0 0.1,0 0.2,0.1l0.3,0.2c0.1,0 0.1,0.1 0.2,0.1c0.1,0 0.1,0.1 0.1,0.1l0.2,0.1c0,0 0.1,0 0.1,0.1c0.1,0.1 0.3,0.2 0.4,0.3c0.2,0.2 0.4,0.4 0.7,0.6l3.8,4.4c0.1,0.2 0.3,0.3 0.4,0.5c0.8,1.1 1.1,2.5 1,3.8c0,0.2 0,0.3 -0.1,0.5c0,0.2 -0.1,0.4 -0.1,0.5c-0.1,0.5 -0.3,0.9 -0.5,1.3c-0.3,0.7 -0.8,1.2 -1.4,1.7c0,0 0,0 0,0l-17.9,15.5c-2.5,2.2 -6.3,1.9 -8.4,-0.6l-3.8,-4.4c-1,-1.2 -1.6,-2.7 -1.4,-4.3c0.2,-1.5 0.9,-3 2.1,-4zm-84.7,-77.4l43.6,-75.5l19.8,11.4l-6.2,10.7c0,0 0,0 0,0.1l-37.4,64.7l-19.8,-11.4zm185.2,18.2l-5.1,-4.4c-0.2,-0.1 -0.3,-0.3 -0.5,-0.4l-15.3,-13.3c-0.4,-0.3 -0.8,-0.6 -1.2,-0.9c-20.2,-17.2 -31.3,-26.2 -33.9,-27.5c-3.7,-1.8 -9.5,-1.1 -16.4,-0.4c-4.4,0.5 -9.5,1 -14.4,0.9c-5.4,-0.1 -10.5,-2.8 -13.7,-7.1c-0.3,-0.4 -0.6,-0.9 -0.9,-1.3c-1.8,-3 -2.5,-6.3 -1.7,-9c0,-0.2 0.1,-0.3 0.2,-0.5c2.3,-6.5 33.5,-8.4 42.3,-7.2c4.9,0.6 13,3.5 19.6,5.8c4.3,1.5 8,2.8 10.1,3.2c3.1,0.7 10.3,-2 21.6,-8l29.7,51.4c-11.1,5.9 -18,15.1 -20.4,18.7zm30.9,-6.8l-43.6,-75.5l19.8,-11.4l43.6,75.5l-19.8,11.4z" class="st2"/>
  </g>
 </g>
</svg>