<svg width="219.936" height="164.331" xmlns="http://www.w3.org/2000/svg" xml:space="preserve">

 <g>
  <title>Layer 1</title>
  <path id="svg_1" d="m124.858,17.373l-48.244,16.287l0,57.957l66.787,0l0,-46.8l-48.48,0l0,28.444l29.937,0l0,-24.515l7.071,0l0,31.586l-43.765,0l0,-42.586l62.23,0l0,61.051l-80.852,0l0,-70.244l62.309,-20.901l0,25.851l-6.993,0l0,-16.13z" fill="#2EB09C"/>
  <g id="svg_2" fill="#FFF">
   <path id="svg_3" d="m45.026,107.693l0,26.965a6.51,6.51 0 0 1 -6.513,6.508l-24.61,0a6.51,6.51 0 0 1 -6.512,-6.508l0,-26.965l8.957,0l0,25.969l19.744,0l0,-25.969l8.934,0zm41.771,33.473l-11.164,0l-13.025,-12.119l-3.557,0l0,-6.876l14.842,0c0.807,0 1.462,-0.655 1.462,-1.462l0,-4.674c0,-0.807 -0.655,-1.467 -1.462,-1.467l-17.179,0l0,26.597l-8.809,0l0,-33.473l29.894,0a6.197,6.197 0 0 1 6.199,6.199l0,8.957a6.198,6.198 0 0 1 -6.199,6.199l-4.05,0l13.048,12.119zm65.483,-33.473l-8.014,0l-18.858,33.473l45.887,0l-19.015,-33.473zm-4.518,8.312l9.625,18.072l-19.25,0l9.625,-18.072zm25.654,25.161l8.171,0l0,-25.161l22.865,9.664l0,15.497l8.093,0l0,-33.473l-8.093,0l0,9.412l-22.943,-9.412l-8.093,0l0,33.473zm-48.284,-22.875l0,-4.005a6.591,6.591 0 0 0 -6.589,-6.593l-29.75,0l0,33.473l28.445,0c3.682,0 7.894,-2.61 7.894,-6.67l0,-4.992c0,-2.628 -1.678,-4.831 -4.077,-5.436c2.274,-1.089 4.077,-3.126 4.077,-5.777zm-8.329,0.543c0,0.933 -0.754,1.686 -1.686,1.686l-14.999,0l0,6.759l14.999,0c0.933,0 1.686,0.758 1.686,1.691l0,3.337c0,0.933 -0.754,1.691 -1.686,1.691l-17.475,0l0,-19.524l17.475,0c0.933,0 1.686,0.754 1.686,1.686l0,2.674z"/>
  </g>
  <text id="svg_4" font-size="9.197" font-family="'OPTIBankGothic-Medium'" fill="#FFF" transform="matrix(1.0869 0 0 1 7.582 153.244)">ARQUITECTURA</text>
  <text id="svg_5" font-size="8.802" font-family="'OPTIBankGothic-Medium'" fill="#FFF" transform="matrix(1.1069 0 0 1 117.265 153.001)">Construcción</text>
  <path id="svg_6" d="m110.069,142.946l0.897,0l0,13.141l-0.897,0l0,-13.141z" fill="#FFF"/>
 </g>
</svg>