<svg xmlns="http://www.w3.org/2000/svg" xmlns:xlink="http://www.w3.org/1999/xlink" width="1080" zoomAndPan="magnify" viewBox="0 0 810 809.999993" height="1080" preserveAspectRatio="xMidYMid meet" version="1.2"><g id="cafe43be78"><path style=" stroke:none;fill-rule:nonzero;fill:#2eb09c;fill-opacity:1;" d="M 459.898438 167.03125 L 282.410156 226.925781 L 282.410156 439.691406 L 527.878906 439.691406 L 527.878906 267.714844 L 349.65625 267.714844 L 349.65625 372.445312 L 459.898438 372.445312 L 459.898438 282.046875 L 485.621094 282.046875 L 485.621094 398.167969 L 325.035156 398.167969 L 325.035156 241.625 L 553.601562 241.625 L 553.601562 466.148438 L 256.320312 466.148438 L 256.320312 208.1875 L 485.621094 131.386719 L 485.621094 226.191406 L 459.898438 226.191406 Z M 459.898438 167.03125 "/><path style=" stroke:none;fill-rule:nonzero;fill:#000000;fill-opacity:1;" d="M 166.289062 498.855469 L 166.289062 598.070312 C 166.289062 611.300781 155.632812 621.957031 142.40625 621.957031 L 52.007812 621.957031 C 38.777344 621.957031 28.121094 611.300781 28.121094 598.070312 L 28.121094 498.855469 L 61.195312 498.855469 L 61.195312 594.394531 L 133.585938 594.394531 L 133.585938 498.855469 Z M 319.890625 621.957031 L 278.734375 621.957031 L 230.964844 577.492188 L 217.734375 577.492188 L 217.734375 552.136719 L 272.121094 552.136719 C 275.0625 552.136719 277.632812 549.566406 277.632812 546.625 L 277.632812 529.355469 C 277.632812 526.414062 275.0625 523.839844 272.121094 523.839844 L 209.285156 523.839844 L 209.285156 621.589844 L 176.945312 621.589844 L 176.945312 498.488281 L 286.820312 498.488281 C 299.3125 498.488281 309.601562 508.777344 309.601562 521.269531 L 309.601562 554.339844 C 309.601562 566.835938 299.3125 577.125 286.820312 577.125 L 271.753906 577.125 Z M 560.582031 498.855469 L 531.1875 498.855469 L 461.734375 621.957031 L 630.402344 621.957031 Z M 544.046875 529.355469 L 579.324219 595.867188 L 508.769531 595.867188 Z M 638.117188 621.957031 L 668.25 621.957031 L 668.25 529.355469 L 752.402344 565 L 752.402344 621.957031 L 781.800781 621.957031 L 781.800781 498.855469 L 752.402344 498.855469 L 752.402344 533.394531 L 667.882812 498.855469 L 638.117188 498.855469 Z M 460.632812 537.804688 L 460.632812 523.105469 C 460.632812 509.878906 449.609375 498.855469 436.378906 498.855469 L 327.242188 498.855469 L 327.242188 621.957031 L 431.601562 621.957031 C 445.199219 621.957031 460.632812 612.402344 460.632812 597.335938 L 460.632812 578.960938 C 460.632812 569.40625 454.386719 561.324219 445.566406 559.117188 C 454.019531 555.078125 460.632812 547.359375 460.632812 537.804688 M 430.132812 539.644531 C 430.132812 542.949219 427.191406 545.890625 423.886719 545.890625 L 368.765625 545.890625 L 368.765625 570.878906 L 423.886719 570.878906 C 427.191406 570.878906 430.132812 573.816406 430.132812 577.125 L 430.132812 589.25 C 430.132812 592.558594 427.191406 595.5 423.886719 595.5 L 359.578125 595.5 L 359.578125 523.84375 L 423.886719 523.84375 C 427.191406 523.84375 430.132812 526.78125 430.132812 530.089844 Z M 430.132812 539.644531 "/><path style=" stroke:none;fill-rule:nonzero;fill:#000000;fill-opacity:1;" d="M 48.699219 639.960938 L 63.765625 666.417969 L 58.988281 666.417969 L 55.316406 660.171875 L 38.410156 660.171875 L 34.738281 666.417969 L 29.59375 666.417969 L 45.027344 639.960938 Z M 53.109375 656.128906 L 46.863281 645.105469 L 40.25 656.128906 Z M 95.738281 666.050781 L 89.488281 666.050781 L 78.097656 655.394531 L 71.117188 655.394531 L 71.117188 666.050781 L 66.339844 666.050781 L 66.339844 639.59375 L 88.019531 639.59375 C 90.960938 639.59375 93.53125 641.0625 93.53125 644.003906 L 93.53125 651.351562 C 93.53125 654.292969 91.328125 655.761719 88.019531 655.761719 L 83.976562 655.761719 Z M 87.285156 644.003906 L 71.117188 644.003906 L 71.117188 652.089844 L 87.285156 652.089844 C 88.386719 652.089844 88.753906 651.71875 88.753906 650.984375 L 88.753906 645.105469 C 88.753906 644.371094 88.386719 644.003906 87.285156 644.003906 M 102.71875 639.960938 L 121.828125 639.960938 C 124.765625 639.960938 127.339844 641.429688 127.339844 644.371094 L 127.339844 662.011719 C 127.339844 664.949219 124.765625 666.417969 121.828125 666.417969 L 102.71875 666.417969 C 99.777344 666.417969 97.207031 664.949219 97.207031 662.011719 L 97.207031 644.371094 C 97.207031 641.429688 99.410156 639.960938 102.71875 639.960938 M 122.195312 644.003906 L 101.984375 644.003906 L 101.984375 662.378906 L 113.007812 662.378906 L 110.433594 657.601562 L 114.109375 655.761719 L 117.785156 662.378906 L 122.195312 662.378906 Z M 119.988281 666.417969 L 122.929688 671.195312 L 117.417969 671.195312 L 115.210938 666.417969 Z M 135.421875 662.378906 L 153.796875 662.378906 L 153.796875 639.960938 L 158.574219 639.960938 L 158.574219 662.007812 C 158.574219 664.949219 156 666.417969 153.0625 666.417969 L 136.15625 666.417969 C 133.21875 666.417969 130.644531 664.949219 130.644531 662.007812 L 130.644531 639.960938 L 135.421875 639.960938 Z M 167.023438 639.960938 L 167.023438 666.417969 L 162.25 666.417969 L 162.25 639.960938 Z M 186.132812 666.050781 L 180.988281 666.050781 L 180.988281 643.636719 L 169.230469 643.636719 L 169.230469 639.59375 L 197.523438 639.59375 L 197.523438 643.636719 L 185.398438 643.636719 L 185.398438 666.050781 Z M 225.820312 644.003906 L 205.609375 644.003906 L 205.609375 651.351562 L 217.734375 651.351562 L 217.734375 655.027344 L 205.609375 655.027344 L 205.609375 662.378906 L 226.1875 662.378906 L 226.1875 666.417969 L 200.832031 666.417969 L 200.832031 639.960938 L 225.820312 639.960938 Z M 252.277344 644.003906 L 234.640625 644.003906 L 234.640625 662.378906 L 252.277344 662.378906 L 252.277344 656.496094 L 257.054688 657.601562 L 257.054688 661.640625 C 257.054688 664.582031 254.484375 666.050781 251.542969 666.050781 L 235.007812 666.050781 C 232.066406 666.050781 229.496094 664.582031 229.496094 661.640625 L 229.496094 644.003906 C 229.496094 641.429688 231.699219 639.59375 235.007812 639.59375 L 251.542969 639.59375 C 254.484375 639.59375 257.054688 641.0625 257.054688 644.003906 L 257.054688 648.78125 L 252.277344 649.882812 Z M 275.796875 666.050781 L 271.019531 666.050781 L 271.019531 643.636719 L 259.257812 643.636719 L 259.257812 639.59375 L 287.554688 639.59375 L 287.554688 643.636719 L 275.429688 643.636719 L 275.429688 666.050781 Z M 295.269531 662.378906 L 313.644531 662.378906 L 313.644531 639.960938 L 318.421875 639.960938 L 318.421875 662.007812 C 318.421875 664.949219 315.851562 666.417969 312.910156 666.417969 L 296.007812 666.417969 C 293.066406 666.417969 290.496094 664.949219 290.496094 662.007812 L 290.496094 639.960938 L 295.273438 639.960938 Z M 351.125 666.050781 L 344.878906 666.050781 L 333.488281 655.394531 L 326.507812 655.394531 L 326.507812 666.050781 L 321.730469 666.050781 L 321.730469 639.59375 L 343.410156 639.59375 C 346.347656 639.59375 348.921875 641.0625 348.921875 644.003906 L 348.921875 651.351562 C 348.921875 654.292969 346.71875 655.761719 343.410156 655.761719 L 339.367188 655.761719 Z M 343.042969 644.003906 L 326.875 644.003906 L 326.875 652.089844 L 343.042969 652.089844 C 344.144531 652.089844 344.511719 651.71875 344.511719 650.984375 L 344.511719 645.105469 C 344.511719 644.371094 344.144531 644.003906 343.042969 644.003906 M 370.234375 639.960938 L 385.300781 666.417969 L 380.523438 666.417969 L 376.847656 660.171875 L 359.945312 660.171875 L 356.269531 666.417969 L 351.492188 666.417969 L 366.925781 639.960938 Z M 375.011719 656.128906 L 368.765625 645.105469 L 362.152344 656.128906 Z M 375.011719 656.128906 "/><path style=" stroke:none;fill-rule:nonzero;fill:#000000;fill-opacity:1;" d="M 456.222656 644.003906 L 438.953125 644.003906 L 438.953125 661.640625 L 456.222656 661.640625 L 456.222656 656.128906 L 461 657.234375 L 461 661.273438 C 461 663.847656 458.792969 665.316406 455.855469 665.316406 L 439.6875 665.316406 C 436.746094 665.316406 434.542969 663.847656 434.542969 661.273438 L 434.542969 644.371094 C 434.542969 641.800781 436.746094 640.328125 439.6875 640.328125 L 455.855469 640.328125 C 458.792969 640.328125 461 641.800781 461 644.371094 L 461 648.78125 L 456.222656 649.882812 Z M 469.820312 640.328125 L 488.558594 640.328125 C 491.5 640.328125 493.703125 641.800781 493.703125 644.371094 L 493.703125 661.273438 C 493.703125 663.847656 491.5 665.316406 488.558594 665.316406 L 469.820312 665.316406 C 466.878906 665.316406 464.675781 663.847656 464.675781 661.273438 L 464.675781 644.371094 C 464.308594 641.800781 466.878906 640.328125 469.820312 640.328125 M 488.925781 661.640625 L 488.925781 644.003906 L 469.082031 644.003906 L 469.082031 661.640625 Z M 501.789062 665.316406 L 497.011719 665.316406 L 497.011719 640.328125 L 501.789062 640.328125 L 521.265625 659.070312 L 521.265625 640.328125 L 526.042969 640.328125 L 526.042969 665.316406 L 521.265625 665.316406 L 501.421875 646.207031 L 501.421875 665.316406 Z M 535.226562 640.328125 L 551.398438 640.328125 C 554.335938 640.328125 556.542969 641.800781 556.542969 644.371094 L 556.542969 646.207031 L 551.765625 647.3125 L 551.765625 644.003906 L 534.492188 644.003906 L 534.492188 650.984375 L 551.027344 650.984375 C 553.96875 650.984375 556.542969 652.457031 556.542969 655.027344 L 556.542969 661.273438 C 556.542969 663.847656 554.335938 665.316406 551.398438 665.316406 L 534.859375 665.316406 C 531.921875 665.316406 529.714844 663.847656 529.714844 661.273438 L 529.714844 659.4375 L 534.492188 658.335938 L 534.492188 661.640625 L 552.132812 661.640625 L 552.132812 654.660156 L 535.59375 654.660156 C 532.65625 654.660156 530.449219 653.191406 530.449219 650.617188 L 530.449219 644.371094 C 530.082031 641.800781 532.289062 640.328125 535.226562 640.328125 M 574.914062 665.316406 L 570.136719 665.316406 L 570.136719 644.003906 L 558.746094 644.003906 L 558.746094 640.328125 L 586.304688 640.328125 L 586.304688 644.003906 L 574.546875 644.003906 L 574.546875 665.316406 Z M 617.539062 665.316406 L 611.660156 665.316406 L 600.636719 655.394531 L 594.023438 655.394531 L 594.023438 665.316406 L 589.246094 665.316406 L 589.246094 640.328125 L 610.558594 640.328125 C 613.5 640.328125 615.703125 641.800781 615.703125 644.371094 L 615.703125 651.351562 C 615.703125 653.925781 613.5 655.394531 610.558594 655.394531 L 606.515625 655.394531 Z M 609.824219 644.003906 L 594.023438 644.003906 L 594.023438 651.71875 L 609.824219 651.71875 C 610.925781 651.71875 611.292969 651.351562 611.292969 650.617188 L 611.292969 645.105469 C 610.925781 644.371094 610.558594 644.003906 609.824219 644.003906 M 623.789062 661.640625 L 641.425781 661.640625 L 641.425781 640.328125 L 646.203125 640.328125 L 646.203125 661.273438 C 646.203125 663.847656 643.632812 665.316406 640.691406 665.316406 L 624.15625 665.316406 C 621.214844 665.316406 619.011719 663.847656 619.011719 661.273438 L 619.011719 640.328125 L 623.789062 640.328125 Z M 672.292969 644.003906 L 655.023438 644.003906 L 655.023438 661.640625 L 672.292969 661.640625 L 672.292969 656.128906 L 677.070312 657.234375 L 677.070312 661.273438 C 677.070312 663.847656 674.867188 665.316406 671.925781 665.316406 L 655.757812 665.316406 C 652.816406 665.316406 650.613281 663.847656 650.613281 661.273438 L 650.613281 644.371094 C 650.613281 641.800781 652.816406 640.328125 655.757812 640.328125 L 671.925781 640.328125 C 674.867188 640.328125 677.070312 641.800781 677.070312 644.371094 L 677.070312 648.78125 L 672.292969 649.882812 Z M 702.425781 644.003906 L 685.15625 644.003906 L 685.15625 661.640625 L 702.425781 661.640625 L 702.425781 656.128906 L 707.203125 657.234375 L 707.203125 661.273438 C 707.203125 663.847656 705 665.316406 702.058594 665.316406 L 685.890625 665.316406 C 682.949219 665.316406 680.746094 663.847656 680.746094 661.273438 L 680.746094 644.371094 C 680.746094 641.800781 682.949219 640.328125 685.890625 640.328125 L 702.058594 640.328125 C 705 640.328125 707.203125 641.800781 707.203125 644.371094 L 707.203125 648.78125 L 702.425781 649.882812 Z M 715.289062 640.328125 L 715.289062 665.316406 L 710.511719 665.316406 L 710.511719 640.328125 Z M 724.105469 640.328125 L 742.847656 640.328125 C 745.789062 640.328125 747.992188 641.800781 747.992188 644.371094 L 747.992188 661.273438 C 747.992188 663.847656 745.789062 665.316406 742.847656 665.316406 L 724.105469 665.316406 C 721.167969 665.316406 718.960938 663.847656 718.960938 661.273438 L 718.960938 644.371094 C 718.960938 641.800781 721.167969 640.328125 724.105469 640.328125 M 743.582031 661.640625 L 743.582031 644.003906 L 723.738281 644.003906 L 723.738281 661.640625 Z M 740.644531 632.980469 L 734.761719 637.390625 L 730.722656 637.390625 L 735.867188 632.980469 Z M 756.445312 665.316406 L 751.667969 665.316406 L 751.667969 640.328125 L 756.445312 640.328125 L 775.917969 659.070312 L 775.917969 640.328125 L 780.695312 640.328125 L 780.695312 665.316406 L 776.285156 665.316406 L 756.445312 646.207031 Z M 756.445312 665.316406 "/><path style=" stroke:none;fill-rule:nonzero;fill:#000000;fill-opacity:1;" d="M 405.511719 628.203125 L 408.820312 628.203125 L 408.820312 676.339844 L 405.511719 676.339844 Z M 405.511719 628.203125 "/></g></svg>