<?xml version="1.0" encoding="utf-8"?>
<!-- Generator: Adobe Illustrator 25.4.2, SVG Export Plug-In . SVG Version: 6.00 Build 0)  -->
<svg version="1.1" xmlns="http://www.w3.org/2000/svg" xmlns:xlink="http://www.w3.org/1999/xlink" x="0px" y="0px"
	 width="75.514px" height="75.514px" viewBox="0 0 75.514 75.514" enable-background="new 0 0 75.514 75.514" xml:space="preserve">
<g id="Capa_1">
</g>
<g id="Capa_3">
</g>
<g id="Capa_5">
</g>
<g id="Capa_2">
</g>
<g id="Capa_4">
</g>
<g id="Capa_6">
</g>
<g id="Capa_7">
</g>
<g id="Capa_8">
	<g>
		<path fill="#2EB09C" d="M16.548,24.645c-0.09,0.287-0.181,0.573-0.181,0.889V49.98c0,0.212,0.079,0.397,0.121,0.597l12.992-14.848
			L16.548,24.645z"/>
		<path fill="#2EB09C" d="M38.751,41.97c-0.286,0.248-0.64,0.37-0.994,0.37c-0.353,0-0.709-0.122-0.994-0.37L31.8,37.718
			l-13.25,15.142c0.282,0.086,0.563,0.175,0.872,0.175h36.669c0.309,0,0.59-0.089,0.871-0.175l-13.25-15.142L38.751,41.97z"/>
		<path fill="#2EB09C" d="M56.664,22.595c-0.191-0.039-0.37-0.116-0.572-0.116H19.423c-0.203,0-0.382,0.077-0.573,0.116
			l18.907,16.206L56.664,22.595z"/>
		<path fill="#2EB09C" d="M37.757,2.388c-19.534,0-35.369,15.835-35.369,35.369s15.835,35.369,35.369,35.369
			s35.369-15.835,35.369-35.369S57.291,2.388,37.757,2.388z M62.203,49.98c0,3.375-2.737,6.111-6.111,6.111H19.423
			c-3.375,0-6.112-2.736-6.112-6.111V25.534c0-3.375,2.737-6.111,6.112-6.111h36.669c3.374,0,6.111,2.736,6.111,6.111V49.98z"/>
		<path fill="#2EB09C" d="M46.032,35.73L59.024,50.58c0.042-0.2,0.123-0.388,0.123-0.6V25.534c0-0.316-0.089-0.602-0.179-0.889
			L46.032,35.73z"/>
	</g>
</g>
<g id="Capa_10">
</g>
<g id="Capa_9">
</g>
<g id="Capa_11">
</g>
<g id="Capa_12">
</g>
<g id="Capa_13">
</g>
</svg>
