<?xml version="1.0" encoding="utf-8"?>
<!-- Generator: Adobe Illustrator 25.4.2, SVG Export Plug-In . SVG Version: 6.00 Build 0)  -->
<svg version="1.1" xmlns="http://www.w3.org/2000/svg" xmlns:xlink="http://www.w3.org/1999/xlink" x="0px" y="0px"
	 width="75.514px" height="75.514px" viewBox="0 0 75.514 75.514" enable-background="new 0 0 75.514 75.514" xml:space="preserve">
<g id="Capa_1">
</g>
<g id="Capa_3">
</g>
<g id="Capa_5">
</g>
<g id="Capa_2">
</g>
<g id="Capa_4">
</g>
<g id="Capa_6">
</g>
<g id="Capa_7">
</g>
<g id="Capa_8">
	<path fill-rule="evenodd" clip-rule="evenodd" fill="#2EB09C" d="M37.757,2.388c-19.534,0-35.369,15.835-35.369,35.369
		s15.835,35.369,35.369,35.369s35.369-15.835,35.369-35.369S57.291,2.388,37.757,2.388z M48.907,21.467
		c0,0.334-0.271,0.604-0.605,0.604h-4.815c-1.182,0-2.14,0.958-2.14,2.14v5.042h6.849c0.354,0,0.632,0.303,0.602,0.655l-0.601,7.106
		c-0.026,0.313-0.288,0.554-0.602,0.554h-6.248v23.585c0,0.334-0.271,0.604-0.604,0.604h-8.618c-0.334,0-0.605-0.271-0.605-0.604
		V37.946v-0.378h-4.309c-0.334,0-0.604-0.271-0.604-0.604v-7.106c0-0.334,0.271-0.605,0.604-0.605h4.309v-6.851
		c0-4.775,3.871-8.645,8.645-8.645h8.136c0.334,0,0.605,0.271,0.605,0.605V21.467z"/>
</g>
<g id="Capa_10">
</g>
<g id="Capa_9">
</g>
<g id="Capa_11">
</g>
<g id="Capa_12">
</g>
<g id="Capa_13">
</g>
</svg>
