<?xml version="1.0" encoding="utf-8"?>
<!-- Generator: Adobe Illustrator 25.4.2, SVG Export Plug-In . SVG Version: 6.00 Build 0)  -->
<svg version="1.1" xmlns="http://www.w3.org/2000/svg" xmlns:xlink="http://www.w3.org/1999/xlink" x="0px" y="0px"
	 width="75.514px" height="75.514px" viewBox="0 0 75.514 75.514" enable-background="new 0 0 75.514 75.514" xml:space="preserve">
<g id="Capa_1">
</g>
<g id="Capa_3">
</g>
<g id="Capa_5">
</g>
<g id="Capa_2">
</g>
<g id="Capa_4">
</g>
<g id="Capa_6">
</g>
<g id="Capa_7">
</g>
<g id="Capa_8">
	<g>
		<path fill="#2EB09C" d="M37.826,31.58c-3.551,0-6.439,2.888-6.439,6.439c0,3.551,2.889,6.439,6.439,6.439
			c3.551,0,6.439-2.888,6.439-6.439C44.265,34.469,41.377,31.58,37.826,31.58z"/>
		<path fill="#2EB09C" d="M37.757,2.388c-19.534,0-35.369,15.835-35.369,35.369s15.835,35.369,35.369,35.369
			s35.369-15.835,35.369-35.369S57.291,2.388,37.757,2.388z M58.109,45.849c0,6.771-5.489,12.26-12.261,12.26H29.666
			c-6.772,0-12.261-5.489-12.261-12.26V29.665c0-6.771,5.489-12.26,12.261-12.26h16.182c6.772,0,12.261,5.489,12.261,12.26V45.849z"
			/>
		<path fill="#2EB09C" d="M45.848,21.245H29.666c-4.651,0-8.421,3.77-8.421,8.42v16.184c0,4.65,3.77,8.42,8.421,8.42h16.182
			c4.651,0,8.421-3.77,8.421-8.42V29.665C54.269,25.015,50.499,21.245,45.848,21.245z M37.826,48.072
			c-5.543,0-10.052-4.509-10.052-10.052s4.51-10.052,10.052-10.052s10.052,4.509,10.052,10.052S43.369,48.072,37.826,48.072z
			 M48.465,29.685c-1.322,0-2.393-1.071-2.393-2.393s1.071-2.393,2.393-2.393s2.393,1.071,2.393,2.393S49.786,29.685,48.465,29.685z
			"/>
	</g>
</g>
<g id="Capa_10">
</g>
<g id="Capa_9">
</g>
<g id="Capa_11">
</g>
<g id="Capa_12">
</g>
<g id="Capa_13">
</g>
</svg>
