<?xml version="1.0" encoding="utf-8"?>
<!-- Generator: Adobe Illustrator 25.4.2, SVG Export Plug-In . SVG Version: 6.00 Build 0)  -->
<svg version="1.1" xmlns="http://www.w3.org/2000/svg" xmlns:xlink="http://www.w3.org/1999/xlink" x="0px" y="0px"
	 width="75.514px" height="75.514px" viewBox="0 0 75.514 75.514" enable-background="new 0 0 75.514 75.514" xml:space="preserve">
<g id="Capa_1">
</g>
<g id="Capa_3">
</g>
<g id="Capa_5">
</g>
<g id="Capa_2">
</g>
<g id="Capa_4">
</g>
<g id="Capa_6">
</g>
<g id="Capa_7">
</g>
<g id="Capa_8">
	<path fill="#2EB09C" d="M37.757,2.387c-19.534,0-35.369,15.836-35.369,35.37s15.835,35.369,35.369,35.369
		s35.369-15.835,35.369-35.369S57.291,2.387,37.757,2.387z M57.429,50.693c-1.25,3.036-4.356,4.987-7.507,5.585
		c-3.009,0.571-5.492-0.388-8.279-1.308c-2.484-0.821-4.885-2.018-7.113-3.383c-4.459-2.731-8.31-6.385-11.405-10.59
		c-0.946-1.285-1.823-2.622-2.63-3.999c-1.07-1.827-2.021-3.747-2.519-5.805c-0.207-0.855-0.316-1.739-0.326-2.626
		c-0.036-3.12,1.155-6.266,3.62-8.274c1.429-1.164,3.541-1.671,5.146-0.764c1.744,0.985,2.648,3.468,3.457,5.21
		c0.633,1.362,1.351,3.152,1.09,4.683c-0.261,1.531-1.472,2.821-2.437,3.956c-0.652,0.767-0.749,1.42-0.208,2.247
		c3.194,5.323,7.628,9.187,13.415,11.491c0.787,0.317,1.399,0.219,1.912-0.414c0.998-1.232,1.983-3.645,3.524-4.276
		c2.009-0.822,4.23,0.317,5.935,1.338c1.588,0.949,4.245,2.117,4.673,4.08C57.985,48.792,57.799,49.794,57.429,50.693z"/>
</g>
<g id="Capa_10">
</g>
<g id="Capa_9">
</g>
<g id="Capa_11">
</g>
<g id="Capa_12">
</g>
<g id="Capa_13">
</g>
</svg>
