<?xml version="1.0" encoding="utf-8"?>
<!-- Generator: Adobe Illustrator 25.4.2, SVG Export Plug-In . SVG Version: 6.00 Build 0)  -->
<svg version="1.1" xmlns="http://www.w3.org/2000/svg" xmlns:xlink="http://www.w3.org/1999/xlink" x="0px" y="0px"
	 width="75.514px" height="75.514px" viewBox="0 0 75.514 75.514" enable-background="new 0 0 75.514 75.514" xml:space="preserve">
<g id="Capa_1">
</g>
<g id="Capa_3">
</g>
<g id="Capa_5">
</g>
<g id="Capa_2">
</g>
<g id="Capa_4">
</g>
<g id="Capa_6">
</g>
<g id="Capa_7">
</g>
<g id="Capa_8">
	<path fill="#2EB09C" d="M37.757,2.388c-19.534,0-35.369,15.835-35.369,35.369c0,19.534,15.835,35.369,35.369,35.369
		c19.534,0,35.369-15.835,35.369-35.369C73.126,18.223,57.291,2.388,37.757,2.388z M58.76,25.932v1.028v3.712v2.78
		c-4.288,0-8.258-1.363-11.5-3.678v16.832c0,8.42-6.829,15.246-15.253,15.246c-3.143,0-6.065-0.95-8.492-2.579
		c0,0-0.001-0.001-0.001-0.001c-4.078-2.736-6.761-7.388-6.761-12.666c0-8.419,6.829-15.245,15.254-15.245
		c0.7-0.001,1.399,0.047,2.093,0.142v1.869c0,0,0,0,0,0v6.563c-0.667-0.212-1.379-0.327-2.117-0.327
		c-3.854,0-6.977,3.122-6.977,6.974c0,2.723,1.561,5.081,3.838,6.23c0.944,0.476,2.01,0.744,3.139,0.744
		c3.846,0,6.964-3.11,6.977-6.95V13.662h8.301v1.061c0.029,0.317,0.071,0.633,0.126,0.947c0.576,3.284,2.541,6.09,5.268,7.791
		c0.046,0.051,0.095,0.099,0.142,0.149c-0.047-0.05-0.096-0.099-0.142-0.149c1.831,1.142,3.947,1.747,6.106,1.743V25.932z"/>
</g>
<g id="Capa_10">
</g>
<g id="Capa_9">
</g>
<g id="Capa_11">
</g>
<g id="Capa_12">
</g>
<g id="Capa_13">
</g>
</svg>
