<?xml version="1.0" encoding="utf-8"?>
<!-- Generator: Adobe Illustrator 25.4.2, SVG Export Plug-In . SVG Version: 6.00 Build 0)  -->
<svg version="1.1" xmlns="http://www.w3.org/2000/svg" xmlns:xlink="http://www.w3.org/1999/xlink" x="0px" y="0px"
	 width="75.514px" height="75.514px" viewBox="0 0 75.514 75.514" enable-background="new 0 0 75.514 75.514" xml:space="preserve">
<g id="Capa_1">
</g>
<g id="Capa_3">
</g>
<g id="Capa_5">
</g>
<g id="Capa_2">
</g>
<g id="Capa_4">
</g>
<g id="Capa_6">
</g>
<g id="Capa_7">
</g>
<g id="Capa_8">
	<g>
		<path fill="#2EB09C" d="M37.757,20.519c-9.505,0-17.238,7.733-17.238,17.238c0,3.64,1.125,7.122,3.252,10.071
			c0.383,0.53,0.452,1.225,0.182,1.821l-1.989,4.382l5.711-1.567c0.158-0.043,0.321-0.065,0.483-0.065
			c0.32,0,0.638,0.084,0.92,0.249c2.628,1.535,5.629,2.347,8.68,2.347c9.505,0,17.238-7.733,17.238-17.238
			C54.995,28.252,47.262,20.519,37.757,20.519z M48.004,44.437c-0.641,1.557-2.234,2.557-3.85,2.864
			c-1.543,0.293-2.816-0.198-4.245-0.671c-1.274-0.421-2.505-1.035-3.647-1.734c-2.286-1.4-4.261-3.274-5.848-5.43
			c-0.485-0.659-0.935-1.344-1.349-2.05c-0.549-0.937-1.036-1.922-1.292-2.977c-0.106-0.439-0.162-0.892-0.167-1.346
			c-0.018-1.6,0.592-3.213,1.857-4.243c0.733-0.597,1.816-0.857,2.638-0.392c0.894,0.505,1.358,1.779,1.773,2.672
			c0.325,0.699,0.693,1.617,0.559,2.401c-0.134,0.785-0.755,1.447-1.25,2.029c-0.334,0.393-0.384,0.728-0.107,1.152
			c1.637,2.729,3.911,4.71,6.879,5.892c0.404,0.163,0.717,0.112,0.98-0.212c0.512-0.632,1.017-1.869,1.807-2.193
			c1.03-0.422,2.169,0.163,3.043,0.686c0.814,0.487,2.177,1.085,2.396,2.092C48.289,43.463,48.194,43.977,48.004,44.437z"/>
		<path fill="#2EB09C" d="M37.757,2.388c-19.534,0-35.369,15.835-35.369,35.369s15.835,35.369,35.369,35.369
			c19.534,0,35.369-15.835,35.369-35.369S57.291,2.388,37.757,2.388z M37.757,58.643c-3.435,0-6.819-0.85-9.837-2.463l-8.742,2.398
			c-0.16,0.044-0.322,0.065-0.482,0.065c-0.526,0-1.036-0.228-1.388-0.64c-0.459-0.538-0.566-1.293-0.273-1.938l3.173-6.989
			c-2.186-3.377-3.336-7.268-3.336-11.319c0-11.516,9.369-20.886,20.886-20.886s20.886,9.369,20.886,20.886
			C58.643,49.273,49.273,58.643,37.757,58.643z"/>
	</g>
</g>
<g id="Capa_10">
</g>
<g id="Capa_9">
</g>
<g id="Capa_11">
</g>
<g id="Capa_12">
</g>
<g id="Capa_13">
</g>
</svg>
